<svg width="127" height="44" fill="none" xmlns="http://www.w3.org/2000/svg"><path fill-rule="evenodd" clip-rule="evenodd" d="m10.067 3.57 9.873.022c.216 0 .423.086.576.237l6.954 6.944a.809.809 0 0 1 .24.575v27.773a2.554 2.554 0 0 1-2.554 2.55H2.554A2.555 2.555 0 0 1 0 39.12V20.226h1.721L1.63 39.121c0 .509.414.922.924.922h22.602a.923.923 0 0 0 .923-.922V12.162h-4.4a2.555 2.555 0 0 1-2.555-2.55V5.219H9.271l.796-1.647Z" fill="#3B82F6"/><path d="m20.782 5.88 4.618 4.618h-3.595a1.024 1.024 0 0 1-1.023-1.023V5.88Z" fill="#3B82F6"/><path fill-rule="evenodd" clip-rule="evenodd" d="m12.7 3.57-2.545 1.635H2.722c-.544 0-.986.412-.986.919v14.189l-.245 1.15L0 24.353V6.122c0-1.4 1.221-2.54 2.722-2.54L12.7 3.57Z" fill="#3B82F6"/><path d="M21.723 22.887h-8.045a.838.838 0 1 0 0 1.676h8.045a.838.838 0 0 0 0-1.676Zm-1.788 3.575h-6.257a.838.838 0 1 0 0 1.676h6.257a.838.838 0 0 0 0-1.676Zm1.788-12.515h-8.045a.838.838 0 0 0 0 1.676h8.045a.838.838 0 0 0 0-1.676ZM8.585 18.61c-.162-.007-.325-.213-.49-.619a5.621 5.621 0 0 1-.28-.904 9.07 9.07 0 0 1-.746.073 6.978 6.978 0 0 0-.746.087c-.095.244-.26.61-.493 1.1-.09.16-.216.24-.376.24a.443.443 0 0 1-.441-.443c0-.113.15-.496.45-1.15a.424.424 0 0 1-.037-.193c.008-.106.108-.19.299-.249.292-.545.616-1.11.974-1.695.514-.84.83-1.26.95-1.26.225 0 .376.147.453.442.04.237.105.593.194 1.067a97.4 97.4 0 0 0 .459 2.19c.014.063.067.209.157.44.074.19.111.333.111.428a.428.428 0 0 1-.135.323.397.397 0 0 1-.303.123Zm-1.15-3.41c-.16.296-.38.7-.662 1.213a2.86 2.86 0 0 1 .431-.054c.23-.015.376-.027.435-.036-.05-.288-.117-.663-.203-1.124Zm.317 12.164c-.568.18-1.285.27-2.152.27a.58.58 0 0 1-.394-.155c-.115-.103-.172-.214-.172-.331v-3.283l-.018-.42a1.857 1.857 0 0 1 .018-.403c.034-.194.247-.312.64-.353.184-.046.491-.068.92-.068.46 0 .901.126 1.322.377.495.293.742.66.742 1.1 0 .237-.051.437-.154.6-.08.132-.22.274-.42.424.237.098.446.244.629.44.207.22.31.437.31.654 0 .274-.176.534-.53.78a2.808 2.808 0 0 1-.741.368ZM6.594 23.46c-.314 0-.503.002-.566.006l.003.656-.003.65c.221.023.388.03.5.022.745-.05 1.118-.282 1.118-.696 0-.147-.11-.288-.329-.425a1.336 1.336 0 0 0-.723-.213Zm.427 2.189c-.221 0-.553-.007-.993-.022v1.158a7.23 7.23 0 0 0 1.362-.204c.429-.103.64-.215.636-.334-.007-.16-.145-.3-.413-.425a1.763 1.763 0 0 0-.592-.173Zm1.535 7.48c-.202 0-.35-.103-.447-.308-.045-.098-.09-.156-.135-.175a.886.886 0 0 0-.265-.023c-.283 0-.609.212-.978.635-.518.592-.777 1.146-.777 1.662a.84.84 0 0 0 .245.606.79.79 0 0 0 .589.253c.222 0 .447-.056.675-.168.081-.041.251-.147.511-.318.175-.112.307-.168.397-.168.135 0 .249.047.343.142.087.089.131.19.131.305a.421.421 0 0 1-.175.334c-.616.5-1.244.751-1.882.751a1.72 1.72 0 0 1-1.278-.531 1.673 1.673 0 0 1-.497-1.206c0-.723.328-1.462.985-2.216.558-.64 1.128-.96 1.71-.96.1 0 .188.004.266.01.081.007.152.017.212.03a.501.501 0 0 1 .357-.14c.228 0 .37.127.423.38.038.18.057.393.057.635a.487.487 0 0 1-.097.294.43.43 0 0 1-.37.175Zm11.379-15.606h-6.257a.838.838 0 0 0 0 1.676h6.257a.838.838 0 0 0 0-1.676Zm1.788 14.302h-8.045a.838.838 0 1 0 0 1.676h8.045a.838.838 0 0 0 0-1.676ZM19.935 35.4h-6.257a.838.838 0 1 0 0 1.677h6.257a.838.838 0 1 0 0-1.676ZM15.53 8.584H4.786c-.428 0-.775.375-.775.838 0 .463.347.838.775.838H15.53c.428 0 .775-.375.775-.838 0-.463-.347-.838-.775-.838ZM64.898 26.23a.62.62 0 0 0 .187-.03l8.104-2.65a.603.603 0 0 0-.375-1.144l-8.103 2.649a.597.597 0 0 0-.386.759.6.6 0 0 0 .573.416Zm0 2.083c.062 0 .124-.01.187-.03l4.053-1.324a.601.601 0 1 0-.375-1.145l-4.052 1.325a.598.598 0 0 0-.386.759.6.6 0 0 0 .573.415Z" fill="#3B82F6"/><path d="M76.145 23.661v-4.549a.604.604 0 0 0-.79-.572l-1.542.504a9.385 9.385 0 0 0-6.451-3.221 8.85 8.85 0 0 0 1.7-1.864 2.11 2.11 0 0 0 1.465-3.89 8.73 8.73 0 0 0 .068-1.085c0-4.87-3.963-8.833-8.833-8.833S52.93 4.114 52.93 8.984c0 .358.022.723.067 1.085a2.113 2.113 0 0 0-1.041 1.819 2.11 2.11 0 0 0 2.505 2.07 8.876 8.876 0 0 0 1.73 1.888 9.393 9.393 0 0 0-6.498 3.192l-1.525-.498a.606.606 0 0 0-.541.085.605.605 0 0 0-.248.487v4.549a2.697 2.697 0 0 0-2.5 2.694v1.183a2.698 2.698 0 0 0 2.5 2.695v6.175c0 .261.166.492.414.573l13.78 4.505.008.003a.545.545 0 0 0 .08.019l.015.002a.653.653 0 0 0 .168 0l.018-.002a.605.605 0 0 0 .08-.02l13.786-4.507a.602.602 0 0 0 .416-.573v-6.175a2.698 2.698 0 0 0 2.498-2.695v-1.183c0-1.42-1.09-2.589-2.498-2.694Zm-27.561 6.572a2.698 2.698 0 0 0 2.499-2.695v-1.183a2.698 2.698 0 0 0-2.499-2.694v-3.719l12.575 4.113v16.029l-12.575-4.112v-5.739Zm1.294-3.878v1.183c0 .827-.673 1.5-1.5 1.5h-.794a1.5 1.5 0 0 1-1.5-1.5v-1.183a1.5 1.5 0 0 1 1.5-1.497h.795a1.5 1.5 0 0 1 1.499 1.497Zm11.214-24.97c.03.276.046.556.046.832 0 3.933-3.049 7.255-6.956 7.599a7.586 7.586 0 0 1-.047-.832c0-3.936 3.049-7.258 6.957-7.6Zm-2.437 17.517-.445-1.822c.665.29 1.365.498 2.086.617l-1.64 1.206Zm4.572-1.205a8.822 8.822 0 0 0 2.087-.616l-.446 1.822-1.64-1.206Zm-6.414-.667h.145l.742 3.035a.602.602 0 0 0 .941.343l3.121-2.294 3.12 2.294a.6.6 0 0 0 .94-.342l.75-3.065h.095c2.236 0 4.321.87 5.887 2.454l-10.792 3.53-10.805-3.534a8.213 8.213 0 0 1 5.856-2.421Zm12.647-4.238a.888.888 0 0 1-.392-.089.599.599 0 0 0-.779.23 7.573 7.573 0 0 1-6.527 3.68 7.581 7.581 0 0 1-6.528-3.68.598.598 0 0 0-.779-.23.905.905 0 1 1-.724-1.657c3.562-.088 6.76-2.36 8.031-5.682 1.272 3.323 4.469 5.595 8.032 5.683a.904.904 0 0 1-.334 1.745Zm-.118-2.976c-3.907-.343-6.956-3.665-6.956-7.599 0-.27.015-.55.045-.832 3.91.341 6.96 3.664 6.96 7.6 0 .263-.017.543-.049.83Zm8.097 16.54v1.182c0 .827-.673 1.5-1.5 1.5h-.795a1.5 1.5 0 0 1-1.497-1.5v-1.183a1.5 1.5 0 0 1 1.497-1.497h.795a1.5 1.5 0 0 1 1.5 1.497Zm-2.5-2.695a2.697 2.697 0 0 0-2.497 2.694v1.183c0 1.422 1.09 2.59 2.498 2.695v5.739l-12.576 4.112v-16.03l12.576-4.112v3.719Z" fill="#3B82F6"/><path d="M61.762 20.151a.605.605 0 1 0 0-1.21.605.605 0 0 0 0 1.21Zm.605 1.544a.606.606 0 1 0-1.211.001.606.606 0 0 0 1.211-.001ZM48.28 14.818a7.372 7.372 0 0 0 1.923-.244.605.605 0 0 0 .43-.577.606.606 0 0 0-.431-.578c-.726-.214-1.362-.636-1.893-1.257 1.479-.978 2.325-2.376 2.325-3.85 0-1.419-.756-2.738-2.127-3.716-1.31-.934-3.04-1.448-4.873-1.448-1.833 0-3.563.514-4.873 1.448-1.371.978-2.126 2.297-2.126 3.716 0 1.418.755 2.738 2.126 3.715 1.31.934 3.04 1.448 4.873 1.448.225 0 .456-.008.688-.026 1.311 1.131 2.874 1.37 3.958 1.37Zm-1.137-3.365a.604.604 0 0 0-.221.867 5.94 5.94 0 0 0 1.148 1.29c-.92-.031-2.142-.281-3.122-1.219a.602.602 0 0 0-.477-.163 8.368 8.368 0 0 1-.837.043c-3.195 0-5.795-1.776-5.795-3.96 0-2.182 2.6-3.958 5.795-3.958s5.795 1.776 5.795 3.959c0 1.215-.855 2.39-2.286 3.141Zm16.913-8.4a.561.561 0 0 0-1.026-.118.554.554 0 0 0-.05.425 8.933 8.933 0 0 0 4.51 5.49.558.558 0 1 0 .51-.996 7.817 7.817 0 0 1-3.944-4.8ZM55.779 8.91c.088 0 .174-.02.254-.06a8.938 8.938 0 0 0 4.508-5.49.555.555 0 0 0-.538-.713.561.561 0 0 0-.538.406 7.818 7.818 0 0 1-3.942 4.801.56.56 0 0 0 .255 1.057Zm9.981 1.672a.56.56 0 0 0-.56.56.354.354 0 0 1-.709 0 .56.56 0 0 0-1.119 0 1.474 1.474 0 0 0 2.947 0 .56.56 0 0 0-.558-.56Zm-6.173 0a.56.56 0 0 0-.56.56.353.353 0 0 1-.706 0 .56.56 0 0 0-1.118 0 1.473 1.473 0 0 0 2.943 0 .56.56 0 0 0-.56-.56Zm41.595 32.639a2.297 2.297 0 0 1-2.295-2.295 2.297 2.297 0 0 1 2.295-2.295.573.573 0 1 1 0 1.148 1.148 1.148 0 0 0 0 2.295.573.573 0 1 1 0 1.147Z" fill="#3B82F6"/><path d="M122.41 39.779h-21.229a.574.574 0 1 1 0-1.148h21.229a.574.574 0 1 1 0 1.148Zm0 3.442h-21.229a.574.574 0 1 1 0-1.147h21.229a.574.574 0 1 1 0 1.147Z" fill="#3B82F6"/><path d="M122.411 39.778a.573.573 0 1 1 0-1.147 1.15 1.15 0 0 0 1.147-1.148.573.573 0 1 1 1.148 0 2.298 2.298 0 0 1-2.295 2.295Zm1.721-30.408a.573.573 0 0 1-.574-.574c0-.633-.515-1.147-1.147-1.147a.573.573 0 1 1 0-1.148 2.298 2.298 0 0 1 2.295 2.295.574.574 0 0 1-.574.574Zm-24.671 0a.574.574 0 0 1-.573-.574 2.297 2.297 0 0 1 2.295-2.295.573.573 0 0 1 0 1.148c-.633 0-1.148.514-1.148 1.147a.574.574 0 0 1-.574.574Zm22.95 33.851a.573.573 0 1 1 0-1.147 1.15 1.15 0 0 0 1.147-1.148.573.573 0 1 1 1.148 0 2.298 2.298 0 0 1-2.295 2.295Z" fill="#3B82F6"/><path d="M124.132 20.271a.572.572 0 0 1-.406-.98l2.127-2.126v-6.648h-1.721a.573.573 0 1 1 0-1.147h2.295c.317 0 .573.257.573.574v7.458c0 .152-.06.299-.168.406l-2.295 2.295a.573.573 0 0 1-.405.168ZM122.41 7.649h-21.229a.574.574 0 0 1 0-1.148h21.229a.574.574 0 0 1 0 1.148ZM99.461 41.5a.573.573 0 0 1-.573-.574V8.796a.574.574 0 1 1 1.147 0v32.13a.573.573 0 0 1-.574.574Zm22.376 0h-20.081a.573.573 0 1 1 0-1.148h20.081a.573.573 0 1 1 0 1.148Z" fill="#3B82F6"/><path d="M121.836 41.5a.573.573 0 0 1-.573-.574v-1.721a.573.573 0 1 1 1.147 0v1.721a.573.573 0 0 1-.574.574Zm-20.08 0a.573.573 0 0 1-.573-.574v-1.721a.573.573 0 1 1 1.147 0v1.721a.574.574 0 0 1-.574.574Zm22.376 0a.573.573 0 0 1-.573-.574V8.796a.573.573 0 1 1 1.147 0v32.13a.574.574 0 0 1-.574.574ZM99.46 10.517h-8.032a.574.574 0 1 1 0-1.147h8.032a.574.574 0 1 1 0 1.147Zm0 28.688h-5.163a.573.573 0 1 1 0-1.148h5.163a.573.573 0 1 1 0 1.148Z" fill="#3B82F6"/><path d="M91.428 36.336a.573.573 0 0 1-.573-.574V9.944a.574.574 0 1 1 1.147 0v25.818a.573.573 0 0 1-.574.574Z" fill="#3B82F6"/><path d="M94.297 39.205a.572.572 0 0 1-.406-.168l-2.868-2.869a.573.573 0 1 1 .81-.811l2.87 2.868a.573.573 0 0 1-.406.98Z" fill="#3B82F6"/><path d="M94.297 39.205a.573.573 0 0 1-.573-.574v-2.868a.573.573 0 1 1 1.147 0v2.868a.573.573 0 0 1-.574.574Z" fill="#3B82F6"/><path d="M94.297 36.336h-2.869a.573.573 0 1 1 0-1.147h2.869a.573.573 0 1 1 0 1.147Zm5.164-17.786h-4.016a.574.574 0 1 1 0-1.148h4.016a.574.574 0 0 1 0 1.148Zm0 3.442h-4.016a.574.574 0 1 1 0-1.147h4.016a.574.574 0 1 1 0 1.148Zm0 3.443h-4.016a.574.574 0 1 1 0-1.148h4.016a.574.574 0 1 1 0 1.148Zm0 3.443h-4.016a.573.573 0 1 1 0-1.148h4.016a.573.573 0 1 1 0 1.148Zm17.209-1.136h-9.18a.574.574 0 1 1 0-1.147h9.18a.573.573 0 1 1 0 1.148Zm2.297 4.015h-13.774a.574.574 0 1 1 0-1.147h13.774a.573.573 0 1 1 0 1.147Zm-3.442 1.721h-6.889a.574.574 0 1 1 0-1.148h6.889a.573.573 0 1 1 0 1.148Zm-.866-16.286a2.439 2.439 0 0 0-1.32-1.425l-1.819-.65a.352.352 0 0 0-.029-.01l-.031-.009a2.503 2.503 0 0 0-.347-.125c-.467-.194-1.154-.591-1.154-1.246 0-.75.627-1.361 1.397-1.361h.257c.803 0 1.433.603 1.433 1.372a.49.49 0 1 0 .98 0c0-.637-.254-1.232-.714-1.675a2.433 2.433 0 0 0-1.699-.677h-.257c-1.311 0-2.377 1.05-2.377 2.34 0 .49.183.945.533 1.333a2.46 2.46 0 0 0-1.309 1.198 2.36 2.36 0 0 0-.123 1.832 2.439 2.439 0 0 0 1.322 1.427l1.938.683a.562.562 0 0 0 .027.008c.256.074 1.532.488 1.532 1.38 0 .75-.627 1.361-1.396 1.361h-.258c-.803 0-1.433-.602-1.433-1.371a.49.49 0 1 0-.98 0c0 .636.254 1.231.714 1.674a2.433 2.433 0 0 0 1.699.677h.258c1.31 0 2.376-1.05 2.376-2.34 0-.606-.28-1.158-.808-1.596-.369-.307-.873-.563-1.419-.722l-1.898-.67a1.465 1.465 0 0 1-.748-.83 1.387 1.387 0 0 1 .075-1.079 1.519 1.519 0 0 1 1.713-.788c.104.041.212.08.321.114a.495.495 0 0 0 .101.031l1.768.632c.359.178.624.472.749.832.122.352.095.735-.075 1.078a.49.49 0 1 0 .878.435 2.36 2.36 0 0 0 .123-1.833ZM35.17 23.109v-2.93h.976v2.93h2.93v.977h-2.93v2.93h-.977v-2.93h-2.93v-.977h2.93Zm48.358 0v-2.93h.976v2.93h2.931v.977h-2.93v2.93h-.977v-2.93h-2.931v-.977h2.93Z" fill="#3B82F6"/></svg>