<svg width="179" height="196" fill="none" xmlns="http://www.w3.org/2000/svg"><path fill-rule="evenodd" clip-rule="evenodd" d="M141.689 182.065c0 7.202-5.86 13.057-13.057 13.057H13.062C5.86 195.122 0 189.267 0 182.065V85.292l8.277-.13.057 96.903a4.73 4.73 0 0 0 4.728 4.723h115.57a4.729 4.729 0 0 0 4.723-4.723l.334-32.106h8v32.106ZM110.701 44.003c-7.202 0-13.062-5.86-13.062-13.057V8.438H47.254L51.324 0l50.485.11c1.106 0 2.165.438 2.948 1.216l35.559 35.564a4.145 4.145 0 0 1 1.222 2.943l-.074 34.736h-7.796l-.465-30.566h-22.502Z" fill="#3B82F6"/><path fill-rule="evenodd" clip-rule="evenodd" d="m106.125 14.33 21.328 21.334h-16.606a4.728 4.728 0 0 1-4.722-4.723v-16.61Z" fill="#3B82F6"/><path fill-rule="evenodd" clip-rule="evenodd" d="m106.125 14.33 21.328 21.334h-16.606a4.728 4.728 0 0 1-4.722-4.723v-16.61ZM60.953.048 48.736 8.45H13.062a4.73 4.73 0 0 0-4.728 4.723v72.115l-1.18 6.742L0 106.882v-93.71C0 5.976 5.86.117 13.062.117l47.89-.068Z" fill="#3B82F6"/><path d="M75.042 27.861H29.59a4.735 4.735 0 0 0 0 9.47h45.452a4.735 4.735 0 0 0 0-9.47Zm0 42.611H29.59a4.735 4.735 0 0 0 0 9.47h45.452a4.735 4.735 0 0 0 0-9.47Zm0 42.611H29.59a4.735 4.735 0 0 0 0 9.47h45.452a4.735 4.735 0 0 0 0-9.47Zm0 40.973H29.59a4.734 4.734 0 1 0 0 9.469h45.452a4.735 4.735 0 1 0 0-9.469Zm-10.1-105.992H29.59a4.734 4.734 0 1 0 0 9.47h35.352a4.735 4.735 0 0 0 0-9.47Zm0 42.611H29.59a4.734 4.734 0 1 0 0 9.469h35.352a4.735 4.735 0 1 0 0-9.47Zm0 42.611H29.59a4.735 4.735 0 1 0 0 9.47h35.352a4.735 4.735 0 0 0 0-9.47ZM138.5 145.25c-18.64 0-33.75-15.11-33.75-33.75s15.11-33.75 33.75-33.75 33.75 15.11 33.75 33.75-15.11 33.75-33.75 33.75Zm0-6.75a27.003 27.003 0 0 0 27-27 27.002 27.002 0 0 0-46.092-19.092A27.002 27.002 0 0 0 138.5 138.5Zm-3.365-13.5-14.32-14.32 4.772-4.772 9.548 9.548 19.089-19.093 4.776 4.772L135.135 125Z" fill="#3B82F6"/></svg>