<svg width="177" height="196" fill="none" xmlns="http://www.w3.org/2000/svg"><path fill-rule="evenodd" clip-rule="evenodd" d="M141.689 182.065c0 7.202-5.86 13.057-13.057 13.057H13.062C5.86 195.122 0 189.267 0 182.065V85.292l8.277-.13.057 96.903a4.73 4.73 0 0 0 4.728 4.723h115.57a4.729 4.729 0 0 0 4.723-4.723l.334-32.106h8v32.106ZM110.701 44.003c-7.202 0-13.062-5.86-13.062-13.057V8.438H47.254L51.324 0l50.485.11c1.106 0 2.165.438 2.948 1.216l35.559 35.564a4.145 4.145 0 0 1 1.222 2.943l-.074 34.736h-7.796l-.465-30.566h-22.502Z" fill="#3B82F6"/><path fill-rule="evenodd" clip-rule="evenodd" d="m106.125 14.33 21.328 21.334h-16.606a4.728 4.728 0 0 1-4.722-4.723v-16.61Z" fill="#3B82F6"/><path fill-rule="evenodd" clip-rule="evenodd" d="m106.125 14.33 21.328 21.334h-16.606a4.728 4.728 0 0 1-4.722-4.723v-16.61ZM60.953.048 48.736 8.45H13.062a4.73 4.73 0 0 0-4.728 4.723v72.115l-1.18 6.742L0 106.882v-93.71C0 5.976 5.86.117 13.062.117l47.89-.068Z" fill="#3B82F6"/><path d="M75.042 27.861H29.59a4.735 4.735 0 0 0 0 9.47h45.452a4.735 4.735 0 0 0 0-9.47Zm0 42.611H29.59a4.735 4.735 0 0 0 0 9.47h45.452a4.735 4.735 0 0 0 0-9.47Zm0 42.611H29.59a4.735 4.735 0 0 0 0 9.47h45.452a4.735 4.735 0 0 0 0-9.47Zm0 40.973H29.59a4.734 4.734 0 1 0 0 9.469h45.452a4.735 4.735 0 1 0 0-9.469Zm-10.1-105.992H29.59a4.734 4.734 0 1 0 0 9.47h35.352a4.735 4.735 0 0 0 0-9.47Zm0 42.611H29.59a4.734 4.734 0 1 0 0 9.469h35.352a4.735 4.735 0 1 0 0-9.47Zm0 42.611H29.59a4.735 4.735 0 1 0 0 9.47h35.352a4.735 4.735 0 0 0 0-9.47Z" fill="#3B82F6"/><g clip-path="url(#Group 852__a)"><path d="M136.028 145.588c-18.858 0-34.144-15.286-34.144-34.144 0-18.857 15.286-34.143 34.144-34.143 18.857 0 34.143 15.286 34.143 34.143 0 18.858-15.286 34.144-34.143 34.144Zm0-6.829a27.315 27.315 0 1 0 0-54.63 27.315 27.315 0 0 0 0 54.63Zm-3.415-17.072h6.829v6.829h-6.829v-6.829Zm6.829-5.616v2.202h-6.829v-5.122a3.415 3.415 0 0 1 3.415-3.414 5.117 5.117 0 0 0 4.629-2.931 5.124 5.124 0 0 0-.669-5.438 5.118 5.118 0 0 0-5.202-1.721 5.118 5.118 0 0 0-3.781 3.965l-6.699-1.342a11.958 11.958 0 0 1 19.776-6.488 11.962 11.962 0 0 1 3.354 5.262 11.959 11.959 0 0 1-7.994 15.027Z" fill="#3B82F6"/></g><defs><clipPath id="Group 852__a"><path fill="#fff" transform="translate(95.055 70.472)" d="M0 0h81.944v81.944H0z"/></clipPath></defs></svg>