<svg width="32" height="32" fill="none" xmlns="http://www.w3.org/2000/svg"><mask id="home-fill 1__a" fill="#fff"><path d="M28 26.666A1.334 1.334 0 0 1 26.667 28H5.333A1.334 1.334 0 0 1 4 26.666V12.653a1.334 1.334 0 0 1 .515-1.053L15.18 3.304a1.334 1.334 0 0 1 1.638 0L27.485 11.6A1.333 1.333 0 0 1 28 12.653v14.013Z"/></mask><path d="M4 26.666H1h3Zm0-14.013h3v-.002l-3 .002Zm.515-1.053L2.673 9.232 4.515 11.6ZM15.18 3.304l1.842 2.368-1.842-2.368Zm1.638 0-1.842 2.368 1.842-2.368ZM27.485 11.6l1.842-2.368-1.842 2.368ZM28 12.653l-3-.002v.002h3Zm-3 14.013c0-.442.176-.865.488-1.178l4.243 4.243A4.333 4.333 0 0 0 31 26.666h-6Zm.488-1.178A1.667 1.667 0 0 1 26.667 25v6a4.333 4.333 0 0 0 3.064-1.27l-4.243-4.242ZM26.667 25H5.333v6h21.334v-6ZM5.333 25c.442 0 .866.175 1.179.488l-4.243 4.243A4.334 4.334 0 0 0 5.333 31v-6Zm1.179.488c.312.313.488.736.488 1.178H1c0 1.15.457 2.252 1.27 3.065l4.242-4.243ZM7 26.666V12.653H1v14.013h6Zm0-14.015c0 .254-.058.505-.17.733L1.44 10.75A4.333 4.333 0 0 0 1 12.655l6-.004Zm-.17.733a1.667 1.667 0 0 1-.473.584L2.673 9.232A4.333 4.333 0 0 0 1.44 10.75l5.39 2.634Zm-.474.584 10.667-8.296L13.34.936 2.673 9.232l3.683 4.736Zm10.667-8.296A1.666 1.666 0 0 1 16 6.023v-6c-.964 0-1.9.321-2.66.913l3.683 4.736ZM16 6.023c-.37 0-.73-.124-1.023-.351L18.66.936A4.334 4.334 0 0 0 16 .023v6Zm-1.023-.351 10.667 8.296 3.683-4.736L18.66.936l-3.683 4.736Zm10.666 8.296a1.667 1.667 0 0 1-.474-.584l5.391-2.634a4.334 4.334 0 0 0-1.233-1.518l-3.684 4.736Zm-.474-.584a1.667 1.667 0 0 1-.169-.733l6 .004c0-.66-.15-1.312-.44-1.905l-5.39 2.634Zm-.169-.73v14.012h6V12.653h-6Z" fill="#3B82F6" mask="url(#home-fill 1__a)"/></svg>