<svg width="200" height="199" fill="none" xmlns="http://www.w3.org/2000/svg"><path fill-rule="evenodd" clip-rule="evenodd" d="M88.519 3.608h21.593l11.412 14.098 20.586 9.957 16.112-3.58 16.334 15.999-2.237 13.65 7.831 25.956 15.552 7.944-.559 22.376-12.979 9.399-8.95 22.152 2.797 16.335-13.986 15.552-14.544-.448h-10.405l-17.23 9.398-6.713 11.636-25.062.448-7.384-14.097-24.166-9.175s-13.986 4.587-15.776 4.811c-1.79.224-15.775-16.335-15.775-16.335l3.468-17.677-11.188-23.943-11.412-8.167-1.455-21.594L18.48 77.786l10.182-21.593-4.252-16.782 16.111-15.216 16.559 2.797 22.712-9.734 8.727-13.65Z" fill="#A4C2F7" stroke="#000" stroke-miterlimit="10" stroke-linecap="round" stroke-linejoin="round"/><path d="M101.355 170.114c39.024-.835 69.982-33.147 69.146-72.17-.835-39.024-33.147-69.982-72.17-69.147-39.024.835-69.981 33.147-69.146 72.171.835 39.023 33.147 69.981 72.17 69.146Z" fill="#F3F6FF"/><path d="M199.16 91.399a9.965 9.965 0 0 0-5.159-8.702l-10.194-5.532-8.826-21.444 3.294-11.126c.995-3.48.125-7.21-2.486-9.821l-11.375-11.312c-2.61-2.611-6.34-3.481-9.82-2.487l-11.126 3.294-21.445-8.888-5.532-10.194c-1.678-3.17-5.096-5.159-8.702-5.159H91.691a9.965 9.965 0 0 0-8.702 5.16L77.457 15.38l-21.444 8.89-11.126-3.295c-3.481-.994-7.273-.124-9.821 2.487L23.69 34.836c-2.61 2.61-3.48 6.34-2.486 9.82l3.294 11.127-8.888 21.444L5.355 82.76c-3.17 1.678-5.16 5.097-5.16 8.702v16.099a9.966 9.966 0 0 0 5.16 8.702l10.194 5.532 8.888 21.444-3.294 11.126c-.995 3.481-.125 7.21 2.486 9.821l11.375 11.374c2.61 2.611 6.34 3.481 9.82 2.487l11.127-3.295 21.444 8.889 5.532 10.193c1.678 3.233 5.096 5.16 8.702 5.16h16.098a9.966 9.966 0 0 0 8.702-5.16l5.532-10.193 21.444-8.889 11.126 3.295c3.481.994 7.273.124 9.821-2.487l11.375-11.374c2.611-2.611 3.481-6.34 2.486-9.821l-3.294-11.126 8.888-21.444 10.194-5.532c3.232-1.678 5.159-5.097 5.159-8.702V91.399Zm-6.589 16.099c0 1.243-.621 2.299-1.678 2.859l-11.188 6.091c-.684.311-1.243.995-1.492 1.678l-9.821 23.62c-.31.684-.31 1.492-.124 2.176l3.667 12.307c.311 1.118.063 2.362-.808 3.232l-11.374 11.374c-.808.808-2.114 1.182-3.233.809l-12.307-3.668c-.746-.186-1.491-.186-2.175.125l-23.62 9.821a3.288 3.288 0 0 0-1.678 1.491l-6.091 11.251c-.56 1.056-1.679 1.678-2.86 1.678H91.691c-1.181 0-2.3-.622-2.86-1.678l-6.09-11.189c-.312-.683-.933-1.181-1.679-1.492l-23.62-9.82c-.683-.311-1.491-.311-2.175-.125l-12.307 3.668c-1.119.311-2.362.062-3.232-.808l-11.375-11.437c-.808-.808-1.181-2.114-.808-3.232l3.667-12.307c.187-.746.187-1.492-.124-2.176l-9.821-23.62c-.31-.745-.808-1.305-1.492-1.678l-11.25-6.091c-1.057-.56-1.678-1.678-1.678-2.859V91.399c0-1.243.621-2.3 1.678-2.86l11.188-6.09c.684-.311 1.243-.995 1.492-1.679l9.82-23.62c.311-.683.311-1.491.125-2.175l-3.667-12.307c-.311-1.119-.063-2.362.808-3.232L39.665 28.06c.809-.808 2.114-1.181 3.233-.808l12.307 3.667c.746.187 1.491.187 2.175-.124L81 20.976c.746-.311 1.305-.809 1.678-1.493l6.091-11.25c.56-1.057 1.679-1.678 2.86-1.678h16.098c1.181 0 2.3.622 2.859 1.678l6.092 11.25c.373.684.994 1.182 1.678 1.492l23.62 9.759c.683.31 1.492.31 2.175.124l12.307-3.667c1.119-.31 2.362-.062 3.232.808l11.375 11.375c.808.808 1.181 2.113.808 3.232l-3.667 12.307c-.186.746-.186 1.492.124 2.175l9.821 23.62c.311.746.808 1.305 1.492 1.678l11.25 6.092c1.057.559 1.678 1.678 1.678 2.859v16.161Z" fill="#3B82F6"/><path d="M128.376 63.518H70.868c0-15.887 12.867-28.753 28.754-28.753s28.754 12.866 28.754 28.753Zm5.594 8.505H65.61c-.895 0-1.678-.783-1.678-1.678V63.52h71.605v6.937c.112.895-.671 1.566-1.567 1.566Z" fill="#3B82F6" stroke="#000" stroke-miterlimit="5.556" stroke-linejoin="round"/><path d="M93.036 57.08V33.338h13.426l.062 23.744" fill="#3B82F6"/><path d="M93.036 57.08V33.338h13.426l.062 23.744" stroke="#000" stroke-width=".556" stroke-miterlimit="3.086" stroke-linejoin="round"/><path d="M124.684 71.799c.112.895.112 1.79.112 2.797 0 15.775-14.993 28.642-25.062 28.642-9.622 0-25.062-12.867-25.062-28.642 0-.895 0-1.902.112-2.797" stroke="#000" stroke-miterlimit="10"/><path d="M69.078 72.358s-.783 5.93 6.601 8.056m55.047-8.056s.783 5.93-6.601 8.056M83.736 52.556h4.699m22.711 0h4.699" stroke="#000" stroke-miterlimit="10"/><path d="m91.008 154.704 8.727 10.517 8.839-10.628-6.154-36.698 4.476-7.72-3.58-4.028h-7.16l-3.357 4.14 4.251 7.72-6.041 36.697Z" fill="#3B82F6"/><path d="M81.832 99.88 86.754 117l9.287-10.965h3.692" stroke="#000" stroke-miterlimit="3.086"/><path d="m92.461 110.286 4.363 7.72-6.041 36.697 8.95 10.964m18.014-65.787L112.824 117l-9.398-10.965h-3.692" stroke="#000" stroke-miterlimit="3.086"/><path d="m107.118 110.286-4.364 7.72 6.042 36.697-9.062 10.964" stroke="#000" stroke-miterlimit="3.086"/><path d="M49.052 148.774c.447-5.37.895-10.74 1.454-16.111 1.007-8.279 5.035-15.775 11.86-20.698 6.153-4.363 13.761-5.259 20.922-6.825m67.129 43.858c-.447-5.482-.895-10.964-1.454-16.335-1.007-8.279-5.035-15.775-11.86-20.698-6.153-4.363-13.649-5.259-20.81-6.825" stroke="#000" stroke-miterlimit="10"/><path d="M130.614 143.18c6.377-.448 12.195-1.007 18.908-1.567m-80.666 1.567c-6.378-.448-12.195-1.007-18.908-1.567m17.452 20.81c.783-9.286 1.79-20.922 2.573-29.985m59.634 0c.783 8.839 1.902 20.699 2.573 29.985" stroke="#000" stroke-miterlimit="10"/></svg>