<svg width="212" height="59" fill="none" xmlns="http://www.w3.org/2000/svg"><path d="M9.727 18.889c.78 0 1.475-.13 2.085-.39.62-.26 1.14-.625 1.56-1.095.42-.47.74-1.04.96-1.71.23-.67.345-1.42.345-2.25V.454h4.035v12.99c0 1.29-.21 2.485-.63 3.585a8.087 8.087 0 0 1-1.785 2.835c-.77.79-1.71 1.41-2.82 1.86-1.11.44-2.36.66-3.75.66-1.4 0-2.655-.22-3.765-.66-1.11-.45-2.055-1.07-2.835-1.86a8.384 8.384 0 0 1-1.785-2.835c-.41-1.1-.615-2.295-.615-3.585V.454h4.035v12.975c0 .83.11 1.58.33 2.25a5.1 5.1 0 0 0 .975 1.725c.43.47.95.835 1.56 1.095.62.26 1.32.39 2.1.39Zm20.586-7.53c.74 0 1.385-.09 1.935-.27.55-.19 1.005-.455 1.365-.795.37-.35.645-.77.825-1.26.18-.5.27-1.055.27-1.665 0-.58-.09-1.105-.27-1.575-.18-.47-.45-.87-.81-1.2-.36-.33-.815-.58-1.365-.75-.55-.18-1.2-.27-1.95-.27h-3.015v7.785h3.015Zm0-10.905c1.45 0 2.705.17 3.765.51 1.06.34 1.935.815 2.625 1.425.69.61 1.2 1.34 1.53 2.19.34.85.51 1.78.51 2.79 0 1.05-.175 2.015-.525 2.895-.35.87-.875 1.62-1.575 2.25-.7.63-1.58 1.12-2.64 1.47-1.05.35-2.28.525-3.69.525h-3.015v7.635h-4.035V.454h7.05Zm18.08 10.32c.76 0 1.42-.095 1.98-.285.57-.19 1.034-.45 1.394-.78.37-.34.645-.74.825-1.2.18-.46.27-.965.27-1.515 0-1.1-.365-1.945-1.095-2.535-.72-.59-1.825-.885-3.315-.885h-2.58v7.2h2.52Zm10.38 11.37h-3.646c-.69 0-1.19-.27-1.5-.81l-4.56-6.945c-.17-.26-.36-.445-.57-.555-.2-.11-.5-.165-.9-.165h-1.725v8.475h-4.035V.454h6.615c1.47 0 2.73.155 3.78.465 1.06.3 1.925.725 2.595 1.275.68.55 1.18 1.21 1.5 1.98.32.76.48 1.6.48 2.52 0 .73-.11 1.42-.33 2.07-.21.65-.52 1.24-.93 1.77-.4.53-.9.995-1.5 1.395-.59.4-1.265.715-2.025.945.26.15.5.33.72.54.22.2.42.44.6.72l5.43 8.01Zm13.801-8.19-2.64-7.215c-.13-.32-.265-.7-.405-1.14-.14-.44-.28-.915-.42-1.425-.13.51-.265.99-.405 1.44-.14.44-.275.825-.405 1.155l-2.625 7.185h6.9Zm7.125 8.19h-3.12c-.35 0-.635-.085-.855-.255-.22-.18-.385-.4-.495-.66l-1.62-4.425h-8.985l-1.62 4.425c-.08.23-.235.44-.465.63-.23.19-.515.285-.855.285h-3.15L67.07.454h4.11l8.52 21.69ZM109.37.454l-6.735 21.69H98.99l-4.74-14.82c-.13-.36-.25-.8-.36-1.32-.06.25-.12.485-.18.705-.06.22-.125.425-.195.615l-4.785 14.82h-3.66L78.349.454h3.375c.35 0 .64.085.87.255.24.16.4.38.48.66l3.69 12.975c.08.32.155.67.225 1.05.08.37.16.76.24 1.17.08-.42.165-.815.255-1.185.1-.37.205-.715.315-1.035l4.26-12.975c.08-.23.235-.44.465-.63.24-.19.53-.285.87-.285h1.185c.35 0 .635.085.855.255.22.17.385.39.495.66l4.245 12.975c.21.62.4 1.335.57 2.145.13-.79.275-1.505.435-2.145l3.69-12.975c.06-.25.21-.465.45-.645.25-.18.545-.27.885-.27h3.165Zm20.948 0v21.69h-2.07c-.32 0-.59-.05-.81-.15-.21-.11-.415-.29-.615-.54l-11.325-14.46c.06.66.09 1.27.09 1.83v13.32h-3.555V.454h2.115c.17 0 .315.01.435.03a.8.8 0 0 1 .33.09c.1.04.195.105.285.195.09.08.19.19.3.33l11.37 14.52a38.8 38.8 0 0 1-.075-1.035c-.02-.34-.03-.655-.03-.945V.454h3.555Zm8.881 21.69h-4.05V.454h4.05v21.69Zm8.906-18.48v6.015h7.59v3.105h-7.59v6.135h9.63v3.225h-13.68V.454h13.68v3.21h-9.63Zm31.491-3.21v21.69h-2.07c-.32 0-.59-.05-.81-.15-.21-.11-.415-.29-.615-.54l-11.325-14.46c.06.66.09 1.27.09 1.83v13.32h-3.555V.454h2.115c.17 0 .315.01.435.03a.8.8 0 0 1 .33.09c.1.04.195.105.285.195.09.08.19.19.3.33l11.37 14.52a38.8 38.8 0 0 1-.075-1.035c-.02-.34-.03-.655-.03-.945V.454h3.555Zm8.88 21.69h-4.05V.454h4.05v21.69Zm16.316-8.19-2.64-7.215c-.13-.32-.265-.7-.405-1.14-.14-.44-.28-.915-.42-1.425-.13.51-.265.99-.405 1.44-.14.44-.275.825-.405 1.155l-2.625 7.185h6.9Zm7.125 8.19h-3.12c-.35 0-.635-.085-.855-.255-.22-.18-.385-.4-.495-.66l-1.62-4.425h-8.985l-1.62 4.425c-.08.23-.235.44-.465.63-.23.19-.515.285-.855.285h-3.15l8.535-21.69h4.11l8.52 21.69Zm-194.69 32.85c.75 0 1.38-.09 1.89-.27.51-.18.915-.42 1.215-.72.31-.3.53-.65.66-1.05.14-.4.21-.825.21-1.275 0-.47-.075-.89-.225-1.26a2.31 2.31 0 0 0-.704-.96c-.32-.27-.735-.475-1.245-.615-.5-.14-1.105-.21-1.816-.21h-4.064v6.36h4.08Zm-4.08-15.42v6.27h3.21c1.38 0 2.42-.25 3.12-.75.71-.5 1.066-1.295 1.066-2.385 0-1.13-.32-1.935-.96-2.415-.64-.48-1.64-.72-3-.72h-3.435Zm3.435-3.12c1.42 0 2.636.135 3.645.405 1.01.27 1.835.655 2.476 1.155.65.5 1.125 1.105 1.425 1.815.3.71.45 1.51.45 2.4 0 .51-.075 1-.226 1.47-.15.46-.384.895-.704 1.305-.31.4-.71.765-1.2 1.095-.48.33-1.056.61-1.726.84 2.98.67 4.47 2.28 4.47 4.83 0 .92-.175 1.77-.524 2.55-.35.78-.86 1.455-1.53 2.025-.67.56-1.496 1-2.476 1.32-.98.32-2.1.48-3.36.48h-8.19v-21.69h7.47ZM37.59 54.889c.78 0 1.475-.13 2.085-.39.62-.26 1.14-.625 1.56-1.095.42-.47.74-1.04.96-1.71.23-.67.345-1.42.345-2.25v-12.99h4.035v12.99c0 1.29-.21 2.485-.63 3.585a8.087 8.087 0 0 1-1.785 2.835c-.77.79-1.71 1.41-2.82 1.86-1.11.44-2.36.66-3.75.66-1.4 0-2.655-.22-3.765-.66-1.11-.45-2.055-1.07-2.835-1.86a8.384 8.384 0 0 1-1.785-2.835c-.41-1.1-.615-2.295-.615-3.585v-12.99h4.035v12.975c0 .83.11 1.58.33 2.25a5.1 5.1 0 0 0 .975 1.725c.43.47.95.835 1.56 1.095.62.26 1.32.39 2.1.39Zm32.795-7.59c0 1.59-.265 3.05-.795 4.38s-1.275 2.475-2.235 3.435-2.115 1.705-3.465 2.235c-1.35.53-2.85.795-4.5.795h-8.265v-21.69h8.265c1.65 0 3.15.27 4.5.81 1.35.53 2.505 1.275 3.465 2.235.96.95 1.705 2.09 2.235 3.42.53 1.33.795 2.79.795 4.38Zm-4.14 0c0-1.19-.16-2.255-.48-3.195-.31-.95-.765-1.75-1.365-2.4a5.831 5.831 0 0 0-2.16-1.515c-.84-.35-1.79-.525-2.85-.525h-4.215v15.27h4.215c1.06 0 2.01-.175 2.85-.525.85-.35 1.57-.85 2.16-1.5.6-.66 1.055-1.46 1.365-2.4.32-.95.48-2.02.48-3.21Zm28.388 0c0 1.59-.266 3.065-.796 4.425-.52 1.35-1.26 2.52-2.22 3.51-.96.99-2.115 1.765-3.465 2.325-1.35.55-2.85.825-4.5.825-1.64 0-3.135-.275-4.484-.825-1.35-.56-2.51-1.335-3.48-2.325-.96-.99-1.706-2.16-2.236-3.51-.53-1.36-.794-2.835-.794-4.425 0-1.59.264-3.06.794-4.41.53-1.36 1.276-2.535 2.236-3.525.97-.99 2.13-1.76 3.48-2.31 1.35-.56 2.844-.84 4.484-.84 1.1 0 2.136.13 3.106.39.97.25 1.86.61 2.67 1.08a9.433 9.433 0 0 1 2.174 1.695c.65.66 1.2 1.4 1.65 2.22.45.82.79 1.71 1.02 2.67.24.96.36 1.97.36 3.03Zm-4.126 0c0-1.19-.16-2.255-.48-3.195-.32-.95-.775-1.755-1.364-2.415a5.831 5.831 0 0 0-2.16-1.515c-.84-.35-1.79-.525-2.85-.525s-2.016.175-2.865.525c-.84.35-1.56.855-2.16 1.515-.59.66-1.045 1.465-1.365 2.415-.32.94-.48 2.005-.48 3.195s.16 2.26.48 3.21c.32.94.775 1.74 1.364 2.4.6.65 1.32 1.15 2.16 1.5.85.35 1.805.525 2.865.525 1.06 0 2.01-.175 2.85-.525.85-.35 1.57-.85 2.16-1.5.59-.66 1.046-1.46 1.365-2.4.32-.95.48-2.02.48-3.21Zm36.09-10.845-6.735 21.69h-3.645l-4.74-14.82c-.13-.36-.25-.8-.36-1.32-.06.25-.12.485-.18.705-.06.22-.125.425-.195.615l-4.785 14.82h-3.66l-6.72-21.69h3.375c.35 0 .64.085.87.255.24.16.4.38.48.66l3.69 12.975c.08.32.155.67.225 1.05.08.37.16.76.24 1.17.08-.42.165-.815.255-1.185.1-.37.205-.715.315-1.035l4.26-12.975c.08-.23.235-.44.465-.63.24-.19.53-.285.87-.285h1.185c.35 0 .635.085.855.255.22.17.385.39.495.66l4.245 12.975c.21.62.4 1.335.57 2.145.13-.79.275-1.505.435-2.145l3.69-12.975c.06-.25.21-.465.45-.645.25-.18.545-.27.885-.27h3.165Zm15.368 18.36v3.33H129.26v-21.69h4.035v18.36h8.67Zm14.341-4.86-2.64-7.215c-.13-.32-.265-.7-.405-1.14-.14-.44-.28-.915-.42-1.425-.13.51-.265.99-.405 1.44-.14.44-.275.825-.405 1.155l-2.625 7.185h6.9Zm7.125 8.19h-3.12c-.35 0-.635-.085-.855-.255-.22-.18-.385-.4-.495-.66l-1.62-4.425h-8.985l-1.62 4.425c-.08.23-.235.44-.465.63-.23.19-.515.285-.855.285h-3.15l8.535-21.69h4.11l8.52 21.69Zm20.53-21.69v21.69h-2.07c-.32 0-.59-.05-.81-.15-.21-.11-.415-.29-.615-.54l-11.325-14.46c.06.66.09 1.27.09 1.83v13.32h-3.555v-21.69h2.115c.17 0 .315.01.435.03a.8.8 0 0 1 .33.09c.1.04.195.105.285.195.09.08.19.19.3.33l11.37 14.52a38.8 38.8 0 0 1-.075-1.035c-.02-.34-.03-.655-.03-.945V36.454h3.555Zm8.88 3.21v6.015h7.59v3.105h-7.59v6.135h9.63v3.225h-13.68v-21.69h13.68v3.21h-9.63Z" fill="#3B82F6"/></svg>