<svg width="76" height="74" fill="none" xmlns="http://www.w3.org/2000/svg"><path d="M47.344 40.58c-.471 0-.919.097-1.332.263a3.573 3.573 0 0 0-3.442-2.65c-.92 0-1.752.36-2.387.931a3.552 3.552 0 0 0-2.387-.93c-.42 0-.819.085-1.194.22v-2.608h5.702l.851-3.344c.38-.142.763-.302 1.141-.477l2.97 1.765 6.377-6.376-1.767-2.97c.176-.38.336-.762.478-1.142l3.345-.85v-9.018l-3.344-.851c-.142-.38-.3-.763-.477-1.141l1.766-2.97-6.376-6.377-2.97 1.766c-.38-.176-.761-.336-1.142-.478L42.304 0h-9.017l-.85 3.344c-.38.142-.763.302-1.141.478l-2.97-1.766-6.377 6.376 1.767 2.971c-.176.378-.336.762-.478 1.141l-3.345.851v9.018l3.344.85c.142.38.3.763.478 1.141l-1.767 2.971 6.376 6.376 1.117-.665v10.189a8.816 8.816 0 0 0-6.422-2.744 3.13 3.13 0 0 0-2.797 4.522l1.392 2.782c.436.873.666 1.848.666 2.822v4.903c0 1.282.3 2.566.871 3.714l2.71 5.457v2.327a3.575 3.575 0 0 0-2.387 3.361V74H49.73v-3.58c0-1.555-1-2.868-2.387-3.362V64.85l1.91-2.546a8.4 8.4 0 0 0 1.671-5.013v-13.13a3.585 3.585 0 0 0-3.58-3.58ZM32.105 24.006a8.304 8.304 0 0 1-2.664-6.102c0-4.606 3.748-8.355 8.355-8.355s8.355 3.75 8.355 8.355c0 4.606-3.748 8.355-8.355 8.355-.493 0-.977-.058-1.457-.142a3.582 3.582 0 0 0-3.317-2.245c-.319 0-.622.055-.917.134ZM28.7 30.75l-3.751-3.752 1.487-2.5-.303-.587a13.113 13.113 0 0 1-.84-2.013l-.202-.63-2.811-.712V15.25l2.81-.714.201-.63c.214-.668.496-1.344.84-2.012l.304-.587-1.487-2.5 3.75-3.752 2.503 1.487.588-.306a13.136 13.136 0 0 1 2.009-.84l.63-.2.715-2.81h5.305l.715 2.81.63.2c.667.214 1.343.497 2.009.84l.588.306 2.502-1.487 3.751 3.751-1.487 2.5.303.588c.345.668.627 1.344.84 2.012l.202.63 2.811.713v5.305l-2.81.714-.201.63a13.113 13.113 0 0 1-.84 2.013l-.304.587 1.488 2.5-3.752 3.752-2.501-1.488-.589.306c-.666.344-1.341.627-2.009.84l-.63.2-.715 2.81h-3.846V28.57c.395.043.793.075 1.193.075 5.922 0 10.742-4.818 10.742-10.742 0-5.923-4.82-10.742-10.742-10.742-5.922 0-10.742 4.819-10.742 10.742 0 2.832 1.1 5.492 3.048 7.489a3.553 3.553 0 0 0-.66 2.06v2.858l-.742.44Zm18.644 40.862H25.861v-1.194c0-.659.535-1.193 1.193-1.193h19.097c.657 0 1.193.534 1.193 1.193v1.194Zm1.194-14.323a6.001 6.001 0 0 1-1.194 3.581l-2.387 3.183v2.785h-16.71v-2.667l-2.958-5.957a6.012 6.012 0 0 1-.622-2.654v-4.903a8.747 8.747 0 0 0-.918-3.89l-1.391-2.782a.734.734 0 0 1-.078-.33c0-.408.332-.738.852-.738a6.318 6.318 0 0 1 6.31 6.31v4.432h2.386V27.452a1.195 1.195 0 0 1 2.387 0v19.096h2.387v-4.774a1.195 1.195 0 0 1 2.387 0v4.774h2.388v-4.774a1.194 1.194 0 0 1 2.387 0v4.774h2.387v-2.387a1.194 1.194 0 0 1 2.387 0v13.13Z" fill="#fff"/><path d="M37.796 23.871a5.975 5.975 0 0 0 5.968-5.968 5.975 5.975 0 0 0-5.968-5.967 5.975 5.975 0 0 0-5.968 5.967 5.974 5.974 0 0 0 5.968 5.968Zm0-9.548a3.585 3.585 0 0 1 3.58 3.58 3.585 3.585 0 0 1-3.58 3.58 3.585 3.585 0 0 1-3.58-3.58 3.585 3.585 0 0 1 3.58-3.58Zm30.316 47.503 1.91 1.432H55.699V34.613h-2.387v31.032h16.71l-1.91 1.432 1.433 1.91 6.047-4.535-6.047-4.536-1.433 1.91Z" fill="#fff"/><path d="m68.112 48.697 1.91 1.432h-9.549V32.226h-2.387v20.29h11.936l-1.91 1.432 1.433 1.91 6.047-4.536-6.047-4.535-1.433 1.91Z" fill="#fff"/><path d="m68.112 40.82 1.433 1.91 6.047-4.536-6.047-4.536-1.433 1.91L70.022 37h-4.774v-7.16H62.86v9.548h7.16l-1.909 1.432Zm-14.8-10.981H55.7v2.387h-2.387v-2.387Zm4.774-2.387h2.388v2.387h-2.388v-2.387Zm4.774-2.388h2.388v2.388H62.86v-2.388ZM7.48 53.948l-1.91-1.432h7.162v-20.29h-2.387v17.903H5.57l1.91-1.432-1.432-1.91L0 51.322l6.048 4.536 1.432-1.91Z" fill="#fff"/><path d="M15.119 63.258H5.57l1.91-1.432-1.432-1.91L0 64.451l6.048 4.536 1.432-1.91-1.91-1.432h11.936V34.613h-2.387v28.645Zm0-33.419h2.387v2.387h-2.387v-2.387Zm-4.774-2.387h2.387v2.387h-2.387v-2.387Z" fill="#fff"/></svg>