<svg width="253" height="245" fill="none" xmlns="http://www.w3.org/2000/svg"><path fill="#fff" d="M.754 29h36v36h-36z"/><path d="M10.423 43.727H9.336v5.341H9.27l-3.7-5.34H4.553V51H5.65v-5.334h.068L9.414 51h1.009v-7.273Zm2.998 0h-1.097V51h1.097v-7.273ZM15.319 51h4.602v-.945h-3.505V47.83h3.225v-.941h-3.225v-2.216h3.463v-.945h-4.56V51Zm8.68 0c2.216 0 3.498-1.374 3.498-3.647 0-2.262-1.282-3.626-3.424-3.626h-2.429V51H24Zm-1.257-.959v-5.355h1.264c1.59 0 2.411.952 2.411 2.667 0 1.722-.82 2.688-2.479 2.688h-1.196Zm6.23.959h5.2v-.945h-3.857l3.825-5.596v-.732h-5.2v.945h3.857l-3.824 5.597V51Zm2.15-8h.848l1.1-1.638h-1.118L31.122 43Z" fill="#AAA"/><path fill="#fff" d="M36.754 29h36v36h-36z"/><path d="M43.553 51h1.097v-2.557h1.492c1.686 0 2.521-1.019 2.521-2.361 0-1.34-.827-2.355-2.518-2.355h-2.592V51Zm1.097-3.487v-2.845h1.378c1.087 0 1.53.59 1.53 1.414s-.443 1.43-1.516 1.43H44.65Zm11.917-.15c0-2.325-1.392-3.735-3.274-3.735-1.89 0-3.278 1.41-3.278 3.736 0 2.322 1.389 3.735 3.278 3.735 1.882 0 3.274-1.41 3.274-3.735Zm-1.087 0c0 1.773-.937 2.735-2.187 2.735-1.254 0-2.188-.962-2.188-2.734s.934-2.735 2.188-2.735c1.25 0 2.187.963 2.187 2.735Zm8.625-3.636h-1.087v5.341h-.067l-3.7-5.34h-1.016V51h1.097v-5.334h.068L63.096 51h1.009v-7.273Z" fill="#AAA"/><path fill="#fff" d="M72.754 29h36v36h-36z"/><path d="M82.977 51h1.108l1.53-5.447h.057L87.202 51h1.105l2.02-7.273H89.17l-1.413 5.636h-.068l-1.473-5.636h-1.144l-1.474 5.632h-.067l-1.417-5.632H80.96L82.977 51Zm8.293-6.328h2.265V51h1.094v-6.328h2.27v-.945h-5.63v.945Zm13.187 2.692c0-2.326-1.392-3.736-3.274-3.736-1.89 0-3.278 1.41-3.278 3.736 0 2.322 1.388 3.735 3.278 3.735 1.882 0 3.274-1.41 3.274-3.735Zm-1.087 0c0 1.772-.937 2.734-2.187 2.734-1.254 0-2.188-.962-2.188-2.734s.934-2.735 2.188-2.735c1.25 0 2.187.963 2.187 2.735Z" fill="#AAA"/><path fill="#fff" d="M108.754 29h36v36h-36z"/><path d="M119.52 45.638h1.058c-.032-1.165-1.062-2.01-2.539-2.01-1.46 0-2.578.834-2.578 2.088 0 1.012.724 1.605 1.892 1.921l.86.234c.777.206 1.378.462 1.378 1.108 0 .71-.679 1.18-1.613 1.18-.845 0-1.548-.377-1.612-1.169h-1.101c.071 1.317 1.09 2.13 2.72 2.13 1.709 0 2.692-.898 2.692-2.13 0-1.31-1.168-1.818-2.091-2.045l-.711-.185c-.568-.146-1.324-.412-1.321-1.108 0-.618.565-1.076 1.46-1.076.834 0 1.427.39 1.506 1.062Zm-1.993-2.639h.849l1.101-1.637h-1.119L117.527 43ZM122.288 51h1.098v-2.752h1.562L126.426 51h1.25l-1.613-2.944c.892-.33 1.336-1.072 1.336-2.049 0-1.339-.831-2.28-2.518-2.28h-2.593V51Zm1.098-3.697v-2.635h1.378c1.083 0 1.53.515 1.53 1.34 0 .82-.447 1.295-1.516 1.295h-1.392Zm11.965.06c0-2.325-1.392-3.735-3.274-3.735-1.889 0-3.278 1.41-3.278 3.736 0 2.322 1.389 3.735 3.278 3.735 1.882 0 3.274-1.41 3.274-3.735Zm-1.086 0c0 1.773-.938 2.735-2.188 2.735-1.253 0-2.187-.962-2.187-2.734s.934-2.735 2.187-2.735c1.25 0 2.188.963 2.188 2.735Z" fill="#AAA"/><path fill="#fff" d="M144.754 29h36v36h-36z"/><path d="M158.593 46.092c-.248-1.555-1.466-2.464-3.004-2.464-1.882 0-3.27 1.41-3.27 3.736 0 2.326 1.381 3.735 3.27 3.735 1.598 0 2.766-1.001 3.004-2.44l-1.108-.003c-.188.93-.969 1.442-1.889 1.442-1.246 0-2.187-.955-2.187-2.734 0-1.765.937-2.735 2.191-2.735.927 0 1.704.522 1.885 1.463h1.108ZM160.018 51h5.199v-.945h-3.856l3.824-5.596v-.732h-5.199v.945h3.857l-3.825 5.597V51Zm8.299 0h1.108l1.531-5.447h.056L172.543 51h1.104l2.021-7.273h-1.158l-1.413 5.636h-.067l-1.474-5.636h-1.144l-1.473 5.632h-.068l-1.417-5.632H166.3L168.317 51Z" fill="#AAA"/><path fill="#fff" d="M180.754 29h36v36h-36z"/><path d="M191.553 51h1.097v-2.557h1.492c1.686 0 2.521-1.019 2.521-2.361 0-1.34-.827-2.355-2.518-2.355h-2.592V51Zm1.097-3.487v-2.845h1.378c1.087 0 1.531.59 1.531 1.414s-.444 1.43-1.517 1.43h-1.392Zm6.697-3.786h-1.098V51h1.098v-7.273ZM201.859 51l.668-1.925h2.841l.66 1.91c-.437.349-.604.771-.579 1.176.039.608.473.938 1.069.938.348 0 .611-.114.774-.213l-.092-.675a1.004 1.004 0 0 1-.444.114c-.266 0-.362-.128-.362-.348 0-.398.369-.7.802-.977l-2.617-7.273h-1.268L200.694 51h1.165Zm.987-2.848 1.073-3.104h.057l1.072 3.104h-2.202Z" fill="#AAA"/><path fill="#fff" d="M216.754 29h36v36h-36z"/><path d="M229.52 45.638h1.058c-.032-1.165-1.062-2.01-2.539-2.01-1.46 0-2.578.834-2.578 2.088 0 1.012.724 1.605 1.892 1.921l.86.234c.777.206 1.378.462 1.378 1.108 0 .71-.679 1.18-1.613 1.18-.845 0-1.548-.377-1.612-1.169h-1.101c.071 1.317 1.09 2.13 2.72 2.13 1.709 0 2.692-.898 2.692-2.13 0-1.31-1.168-1.818-2.091-2.045l-.711-.185c-.568-.146-1.324-.412-1.321-1.108 0-.618.565-1.076 1.46-1.076.834 0 1.427.39 1.506 1.062Zm9.086 1.726c0-2.326-1.392-3.736-3.274-3.736-1.889 0-3.278 1.41-3.278 3.736 0 2.322 1.389 3.735 3.278 3.735 1.882 0 3.274-1.41 3.274-3.735Zm-1.087 0c0 1.772-.937 2.734-2.187 2.734-1.254 0-2.188-.962-2.188-2.734s.934-2.735 2.188-2.735c1.25 0 2.187.963 2.187 2.735ZM240.274 51h2.788c1.69 0 2.453-.842 2.453-1.957 0-1.125-.788-1.761-1.509-1.8v-.071c.668-.17 1.225-.625 1.225-1.534 0-1.076-.745-1.91-2.294-1.91h-2.663V51Zm1.097-.941v-2.33h1.623c.881 0 1.431.569 1.431 1.261 0 .61-.415 1.069-1.47 1.069h-1.584Zm0-3.185V44.66h1.499c.87 0 1.285.458 1.285 1.062 0 .703-.575 1.15-1.314 1.15h-1.47Z" fill="#AAA"/><path fill="#fff" d="M.754 65h36v36h-36z"/><path d="M20.788 77.818H19.29l-2.54 1.66v1.472l2.436-1.59h.06V88h1.54V77.818Z" fill="#222"/><path fill="#fff" d="M36.754 65h36v36h-36z"/><path d="M51.94 88h6.702v-1.317h-4.584v-.075l2.024-2.118c1.864-1.884 2.396-2.784 2.396-3.922 0-1.636-1.332-2.889-3.251-2.889-1.905 0-3.297 1.233-3.297 3.092h1.467c-.005-1.093.701-1.81 1.8-1.81 1.034 0 1.82.637 1.82 1.651 0 .9-.538 1.546-1.631 2.705l-3.446 3.57V88Z" fill="#222"/><path fill="#fff" d="M72.754 65h36v36h-36z"/><path d="M90.766 88.14c2.078 0 3.605-1.244 3.6-2.934.005-1.288-.776-2.212-2.128-2.421v-.08c1.064-.273 1.755-1.108 1.75-2.252.005-1.496-1.223-2.774-3.182-2.774-1.87 0-3.37 1.129-3.42 2.784h1.486c.035-.935.915-1.501 1.914-1.501 1.04 0 1.72.631 1.715 1.57.005.985-.785 1.631-1.914 1.631h-.86v1.253h.86c1.412 0 2.228.716 2.228 1.74 0 .99-.86 1.66-2.059 1.66-1.103 0-1.963-.566-2.023-1.47h-1.561c.065 1.66 1.536 2.793 3.594 2.793Z" fill="#222"/><path fill="#fff" d="M108.754 65h36v36h-36z"/><path d="M122.939 86.011h4.828V88h1.466v-1.989h1.348V84.71h-1.348v-6.89h-1.894l-4.4 6.95v1.242Zm4.838-1.302h-3.227v-.08l3.147-4.981h.08v5.06Z" fill="#222"/><path fill="#fff" d="M144.754 65h36v36h-36z"/><path d="M163.253 88.14c2.049 0 3.51-1.448 3.505-3.431.005-1.969-1.367-3.4-3.221-3.4-.756 0-1.457.288-1.855.675h-.059l.323-2.848h4.32v-1.318h-5.598l-.572 5.13 1.407.21c.383-.343 1.069-.577 1.686-.577 1.208.01 2.083.915 2.083 2.158 0 1.223-.85 2.108-2.019 2.108-.984 0-1.765-.627-1.844-1.502h-1.492c.06 1.62 1.467 2.794 3.336 2.794Z" fill="#222"/><path fill="#fff" d="M180.754 65h36v36h-36z"/><path d="M199.338 88.14c2.128.02 3.54-1.512 3.535-3.466.005-1.949-1.412-3.346-3.177-3.346-1.074 0-2.004.517-2.526 1.377h-.074c.005-2.311.88-3.684 2.371-3.684.979 0 1.596.597 1.805 1.442h1.516c-.234-1.61-1.501-2.784-3.321-2.784-2.366 0-3.843 2.033-3.843 5.573-.005 3.749 1.904 4.872 3.714 4.887Zm-.005-1.293c-1.183 0-2.048-.995-2.048-2.138.005-1.139.909-2.133 2.083-2.133 1.163 0 2.018.94 2.013 2.118.005 1.203-.885 2.153-2.048 2.153Z" fill="#222"/><path fill="#fff" d="M216.754 65h36v36h-36z"/><path d="M232.523 88h1.605l4.43-8.82v-1.362h-6.731v1.318h5.14v.074L232.523 88Z" fill="#222"/><path fill="#fff" d="M.754 101h36v36h-36z"/><path d="M19.25 124.139c2.119 0 3.615-1.203 3.625-2.853-.01-1.283-.91-2.362-2.048-2.566v-.059c.99-.239 1.66-1.169 1.67-2.268-.01-1.556-1.382-2.714-3.246-2.714-1.884 0-3.257 1.158-3.247 2.714-.01 1.094.662 2.029 1.67 2.268v.059c-1.158.204-2.057 1.283-2.047 2.566-.01 1.65 1.486 2.853 3.624 2.853Zm0-1.258c-1.272 0-2.077-.676-2.067-1.695-.01-1.059.865-1.815 2.068-1.815 1.183 0 2.058.756 2.068 1.815-.01 1.019-.81 1.695-2.068 1.695Zm0-4.738c-1.028 0-1.76-.651-1.75-1.62-.01-.955.697-1.586 1.75-1.586 1.035 0 1.74.631 1.75 1.586-.01.969-.735 1.62-1.75 1.62Z" fill="#222"/><path fill="#fff" d="M36.754 101h36v36h-36z"/><path d="M55.169 113.679c-2.138-.02-3.535 1.516-3.535 3.445.005 1.944 1.412 3.346 3.177 3.346 1.079 0 2.003-.527 2.525-1.382h.08c-.005 2.342-.885 3.709-2.377 3.709-.974 0-1.6-.597-1.8-1.467h-1.515c.223 1.646 1.496 2.809 3.316 2.809 2.366 0 3.848-2.033 3.848-5.598-.005-3.719-1.905-4.847-3.72-4.862Zm.005 1.293c1.178 0 2.048.999 2.048 2.117.005 1.134-.915 2.128-2.078 2.128-1.168 0-2.014-.934-2.019-2.113 0-1.183.88-2.132 2.049-2.132Z" fill="#222"/><path fill="#fff" d="M72.754 101h36v36h-36z"/><path d="M87.77 113.818h-1.497l-2.54 1.661v1.471l2.435-1.591h.06V124h1.541v-10.182Zm6.298 10.351c2.352 0 3.729-1.919 3.729-5.255 0-3.311-1.397-5.235-3.729-5.235-2.337 0-3.729 1.919-3.734 5.235 0 3.331 1.378 5.25 3.734 5.255Zm0-1.327c-1.377 0-2.207-1.382-2.207-3.928.005-2.535.835-3.932 2.207-3.932 1.367 0 2.203 1.397 2.203 3.932 0 2.546-.83 3.928-2.203 3.928Z" fill="#222"/><path fill="#fff" d="M108.754 101h36v36h-36z"/><path d="M124.979 113.818h-1.496l-2.541 1.661v1.471l2.436-1.591h.06V124h1.541v-10.182Zm6.617 0H130.1l-2.541 1.661v1.471l2.436-1.591h.06V124h1.541v-10.182Z" fill="#222"/><rect x="144.754" y="101" width="36" height="36" rx="18" fill="#1294F2"/><path d="M159.995 113.818h-1.497l-2.54 1.661v1.471l2.436-1.591h.059V124h1.542v-10.182ZM162.749 124h6.702v-1.317h-4.584v-.075l2.023-2.118c1.865-1.884 2.397-2.784 2.397-3.923 0-1.635-1.333-2.888-3.252-2.888-1.904 0-3.296 1.233-3.296 3.092h1.467c-.005-1.093.701-1.809 1.799-1.809 1.034 0 1.82.636 1.82 1.65 0 .9-.537 1.546-1.631 2.705l-3.445 3.569V124Zm18.005-23h36v36h-36z" fill="#fff"/><path d="M195.776 113.818h-1.497l-2.54 1.661v1.471l2.436-1.591h.06V124h1.541v-10.182Zm6.299 10.321c2.078 0 3.604-1.243 3.599-2.933.005-1.288-.775-2.212-2.127-2.421v-.08c1.063-.273 1.754-1.108 1.75-2.252.004-1.496-1.223-2.774-3.182-2.774-1.87 0-3.371 1.129-3.421 2.784h1.487c.035-.935.915-1.501 1.914-1.501 1.039 0 1.72.631 1.715 1.571.005.984-.785 1.63-1.914 1.63h-.86v1.253h.86c1.412 0 2.227.716 2.227 1.74 0 .99-.86 1.661-2.058 1.661-1.104 0-1.964-.567-2.023-1.472h-1.562c.065 1.661 1.537 2.794 3.595 2.794Z" fill="#222"/><path fill="#fff" d="M216.754 101h36v36h-36z"/><path d="M231.708 113.818h-1.497l-2.54 1.661v1.471l2.436-1.591h.059V124h1.542v-10.182Zm2.54 8.193h4.827V124h1.467v-1.989h1.347v-1.302h-1.347v-6.891h-1.894l-4.4 6.95v1.243Zm4.837-1.302h-3.226v-.08l3.147-4.981h.079v5.061Z" fill="#222"/><path fill="#fff" d="M.754 137h36v36h-36z"/><path d="M15.947 149.818H14.45l-2.54 1.661v1.471l2.436-1.591h.06V160h1.54v-10.182Zm6.115 10.321c2.048 0 3.51-1.447 3.505-3.43.005-1.969-1.367-3.401-3.222-3.401-.755 0-1.456.289-1.854.676h-.06l.323-2.848h4.32v-1.318h-5.597l-.572 5.131 1.407.209c.383-.343 1.069-.577 1.685-.577 1.208.01 2.083.915 2.083 2.158 0 1.223-.85 2.108-2.018 2.108-.985 0-1.765-.627-1.845-1.502h-1.491c.06 1.621 1.467 2.794 3.336 2.794Z" fill="#222"/><path fill="#fff" d="M36.754 137h36v36h-36z"/><path d="M51.837 149.818h-1.496l-2.54 1.661v1.471l2.436-1.591h.06V160h1.54v-10.182Zm6.31 10.321c2.127.02 3.54-1.511 3.534-3.465.005-1.949-1.412-3.346-3.177-3.346-1.073 0-2.003.517-2.525 1.377h-.075c.005-2.312.88-3.684 2.372-3.684.98 0 1.595.597 1.804 1.442h1.517c-.234-1.611-1.502-2.784-3.321-2.784-2.367 0-3.843 2.033-3.843 5.573-.005 3.749 1.904 4.872 3.713 4.887Zm-.006-1.292c-1.183 0-2.048-.995-2.048-2.138.005-1.139.91-2.133 2.083-2.133 1.164 0 2.019.94 2.014 2.118.005 1.203-.885 2.153-2.049 2.153Z" fill="#222"/><path fill="#fff" d="M72.754 137h36v36h-36z"/><path d="M88.734 149.818h-1.496l-2.541 1.661v1.471l2.436-1.591h.06V160h1.54v-10.182ZM91.83 160h1.606l4.43-8.82v-1.362h-6.732v1.318h5.14v.074L91.832 160Z" fill="#222"/><path fill="#fff" d="M108.754 137h36v36h-36z"/><path d="M123.865 149.818h-1.497l-2.54 1.661v1.471l2.436-1.591h.06V160h1.541v-10.182Zm6.194 10.321c2.118 0 3.615-1.203 3.625-2.853-.01-1.283-.91-2.362-2.049-2.566v-.059c.99-.239 1.661-1.169 1.671-2.268-.01-1.556-1.382-2.714-3.247-2.714-1.884 0-3.256 1.158-3.246 2.714-.01 1.094.661 2.029 1.67 2.268v.059c-1.158.204-2.058 1.283-2.048 2.566-.01 1.65 1.487 2.853 3.624 2.853Zm0-1.258c-1.272 0-2.078-.676-2.068-1.695-.01-1.059.865-1.815 2.068-1.815 1.184 0 2.059.756 2.069 1.815-.01 1.019-.811 1.695-2.069 1.695Zm0-4.738c-1.029 0-1.76-.651-1.75-1.62-.01-.955.696-1.586 1.75-1.586 1.034 0 1.74.631 1.75 1.586-.01.969-.735 1.62-1.75 1.62Z" fill="#222"/><path fill="#fff" d="M144.754 137h36v36h-36z"/><path d="M159.837 149.818h-1.496l-2.54 1.661v1.471l2.436-1.591h.059V160h1.541v-10.182Zm6.14-.139c-2.137-.02-3.534 1.516-3.534 3.445.005 1.944 1.411 3.346 3.176 3.346 1.079 0 2.004-.527 2.526-1.382h.08c-.005 2.342-.885 3.709-2.377 3.709-.974 0-1.601-.597-1.8-1.467h-1.516c.224 1.646 1.496 2.809 3.316 2.809 2.367 0 3.848-2.033 3.848-5.598-.005-3.719-1.904-4.847-3.719-4.862Zm.005 1.293c1.179 0 2.049.999 2.049 2.117.005 1.134-.915 2.128-2.078 2.128-1.169 0-2.014-.934-2.019-2.113 0-1.183.88-2.132 2.048-2.132Z" fill="#222"/><path fill="#fff" d="M180.754 137h36v36h-36z"/><path d="M190.922 160h6.701v-1.317h-4.583v-.075l2.023-2.118c1.864-1.884 2.396-2.784 2.396-3.923 0-1.635-1.332-2.888-3.251-2.888-1.904 0-3.296 1.233-3.296 3.092h1.466c-.005-1.093.701-1.809 1.8-1.809 1.034 0 1.82.636 1.82 1.65 0 .9-.537 1.546-1.631 2.705l-3.445 3.569V160Zm12.13.169c2.352 0 3.729-1.919 3.729-5.255 0-3.311-1.397-5.235-3.729-5.235-2.336 0-3.728 1.919-3.733 5.235 0 3.331 1.377 5.25 3.733 5.255Zm0-1.327c-1.377 0-2.207-1.382-2.207-3.928.005-2.535.835-3.932 2.207-3.932 1.368 0 2.203 1.397 2.203 3.932 0 2.546-.83 3.928-2.203 3.928Z" fill="#222"/><path fill="#fff" d="M216.754 137h36v36h-36z"/><path d="M228.132 160h6.701v-1.317h-4.583v-.075l2.023-2.118c1.864-1.884 2.396-2.784 2.396-3.923 0-1.635-1.332-2.888-3.251-2.888-1.904 0-3.296 1.233-3.296 3.092h1.466c-.005-1.093.701-1.809 1.8-1.809 1.034 0 1.82.636 1.82 1.65 0 .9-.537 1.546-1.631 2.705l-3.445 3.569V160Zm12.449-10.182h-1.497l-2.54 1.661v1.471l2.436-1.591h.059V160h1.542v-10.182Z" fill="#222"/><path fill="#fff" d="M.754 173h36v36h-36z"/><path d="M11.147 196h6.702v-1.317h-4.584v-.075l2.024-2.118c1.864-1.884 2.396-2.784 2.396-3.923 0-1.635-1.332-2.888-3.251-2.888-1.904 0-3.297 1.233-3.297 3.092h1.467c-.005-1.093.701-1.809 1.8-1.809 1.034 0 1.82.636 1.82 1.65 0 .9-.538 1.546-1.631 2.705l-3.446 3.569V196Zm8.586 0h6.702v-1.317h-4.584v-.075l2.024-2.118c1.864-1.884 2.396-2.784 2.396-3.923 0-1.635-1.332-2.888-3.252-2.888-1.904 0-3.296 1.233-3.296 3.092h1.467c-.005-1.093.701-1.809 1.8-1.809 1.034 0 1.82.636 1.82 1.65 0 .9-.538 1.546-1.631 2.705l-3.446 3.569V196Z" fill="#222"/><path fill="#fff" d="M36.754 173h36v36h-36z"/><path d="M46.929 196h6.701v-1.317h-4.584v-.075l2.024-2.118c1.864-1.884 2.396-2.784 2.396-3.923 0-1.635-1.332-2.888-3.251-2.888-1.904 0-3.296 1.233-3.296 3.092h1.466c-.005-1.093.701-1.809 1.8-1.809 1.034 0 1.82.636 1.82 1.65 0 .9-.537 1.546-1.631 2.705l-3.445 3.569V196Zm12.13.139c2.078 0 3.605-1.243 3.6-2.933.005-1.288-.776-2.212-2.128-2.421v-.08c1.064-.273 1.755-1.108 1.75-2.252.005-1.496-1.223-2.774-3.182-2.774-1.87 0-3.37 1.129-3.42 2.784h1.486c.035-.935.915-1.501 1.914-1.501 1.04 0 1.72.631 1.715 1.571.005.984-.785 1.63-1.914 1.63h-.86v1.253h.86c1.412 0 2.228.716 2.228 1.74 0 .99-.86 1.661-2.059 1.661-1.103 0-1.963-.567-2.023-1.472h-1.561c.064 1.661 1.536 2.794 3.594 2.794Z" fill="#222"/><path fill="#fff" d="M72.754 173h36v36h-36z"/><path d="M82.97 196h6.701v-1.317h-4.584v-.075l2.024-2.118c1.864-1.884 2.396-2.784 2.396-3.923 0-1.635-1.332-2.888-3.251-2.888-1.904 0-3.296 1.233-3.296 3.092h1.466c-.005-1.093.701-1.809 1.8-1.809 1.034 0 1.82.636 1.82 1.65 0 .9-.537 1.546-1.631 2.705l-3.445 3.569V196Zm8.153-1.989h4.828V196h1.466v-1.989h1.347v-1.302h-1.347v-6.891h-1.894l-4.4 6.95v1.243Zm4.837-1.302h-3.226v-.08l3.147-4.981h.08v5.061Z" fill="#222"/><path fill="#fff" d="M108.754 173h36v36h-36z"/><path d="M119.1 196h6.701v-1.317h-4.584v-.075l2.024-2.118c1.864-1.884 2.396-2.784 2.396-3.923 0-1.635-1.332-2.888-3.251-2.888-1.904 0-3.296 1.233-3.296 3.092h1.466c-.005-1.093.701-1.809 1.8-1.809 1.034 0 1.82.636 1.82 1.65 0 .9-.537 1.546-1.631 2.705l-3.445 3.569V196Zm11.946.139c2.049 0 3.51-1.447 3.505-3.43.005-1.969-1.367-3.401-3.221-3.401-.756 0-1.457.289-1.855.676h-.059l.323-2.848h4.32v-1.318h-5.598l-.572 5.131 1.407.209c.383-.343 1.069-.577 1.686-.577 1.208.01 2.083.915 2.083 2.158 0 1.223-.85 2.108-2.019 2.108-.984 0-1.765-.627-1.844-1.502h-1.492c.06 1.621 1.467 2.794 3.336 2.794Z" fill="#222"/><path fill="#fff" d="M144.754 173h36v36h-36z"/><path d="M154.99 196h6.702v-1.317h-4.584v-.075l2.023-2.118c1.865-1.884 2.397-2.784 2.397-3.923 0-1.635-1.333-2.888-3.252-2.888-1.904 0-3.296 1.233-3.296 3.092h1.467c-.005-1.093.701-1.809 1.8-1.809 1.034 0 1.819.636 1.819 1.65 0 .9-.537 1.546-1.631 2.705l-3.445 3.569V196Zm12.141.139c2.128.02 3.54-1.511 3.535-3.465.005-1.949-1.412-3.346-3.177-3.346-1.074 0-2.004.517-2.526 1.377h-.074c.005-2.312.88-3.684 2.371-3.684.979 0 1.596.597 1.805 1.442h1.516c-.234-1.611-1.501-2.784-3.321-2.784-2.366 0-3.843 2.033-3.843 5.573-.005 3.749 1.904 4.872 3.714 4.887Zm-.005-1.292c-1.183 0-2.048-.995-2.048-2.138.004-1.139.909-2.133 2.083-2.133 1.163 0 2.018.94 2.013 2.118.005 1.203-.885 2.153-2.048 2.153Z" fill="#222"/><path fill="#fff" d="M180.754 173h36v36h-36z"/><path d="M191.887 196h6.701v-1.317h-4.583v-.075l2.023-2.118c1.864-1.884 2.396-2.784 2.396-3.923 0-1.635-1.332-2.888-3.251-2.888-1.904 0-3.296 1.233-3.296 3.092h1.466c-.005-1.093.701-1.809 1.8-1.809 1.034 0 1.82.636 1.82 1.65 0 .9-.537 1.546-1.631 2.705l-3.445 3.569V196Zm8.929 0h1.605l4.43-8.82v-1.362h-6.731v1.318h5.14v.074l-4.444 8.79Z" fill="#222"/><path fill="#fff" d="M216.754 173h36v36h-36z"/><path d="M227.017 196h6.702v-1.317h-4.584v-.075l2.024-2.118c1.864-1.884 2.396-2.784 2.396-3.923 0-1.635-1.332-2.888-3.251-2.888-1.904 0-3.296 1.233-3.296 3.092h1.466c-.005-1.093.701-1.809 1.8-1.809 1.034 0 1.819.636 1.819 1.65 0 .9-.536 1.546-1.63 2.705l-3.446 3.569V196Zm12.027.139c2.118 0 3.614-1.203 3.624-2.853-.01-1.283-.91-2.362-2.048-2.566v-.059c.989-.239 1.66-1.169 1.67-2.268-.01-1.556-1.382-2.714-3.246-2.714-1.884 0-3.257 1.158-3.247 2.714-.01 1.094.662 2.029 1.671 2.268v.059c-1.159.204-2.058 1.283-2.049 2.566-.009 1.65 1.487 2.853 3.625 2.853Zm0-1.258c-1.273 0-2.078-.676-2.068-1.695-.01-1.059.865-1.815 2.068-1.815 1.183 0 2.058.756 2.068 1.815-.01 1.019-.81 1.695-2.068 1.695Zm0-4.738c-1.029 0-1.76-.651-1.75-1.62-.01-.955.696-1.586 1.75-1.586 1.034 0 1.74.631 1.75 1.586-.01.969-.736 1.62-1.75 1.62Z" fill="#222"/><path fill="#fff" d="M.754 209h36v36h-36z"/><path d="M10.99 232h6.702v-1.317h-4.584v-.075l2.024-2.118c1.864-1.884 2.396-2.784 2.396-3.923 0-1.635-1.333-2.888-3.252-2.888-1.904 0-3.296 1.233-3.296 3.092h1.467c-.005-1.093.7-1.809 1.8-1.809 1.034 0 1.82.636 1.82 1.65 0 .9-.538 1.546-1.632 2.705l-3.445 3.569V232Zm11.972-10.321c-2.138-.02-3.535 1.516-3.535 3.445.005 1.944 1.412 3.346 3.177 3.346 1.079 0 2.003-.527 2.525-1.382h.08c-.005 2.342-.885 3.709-2.377 3.709-.974 0-1.6-.597-1.8-1.467h-1.516c.224 1.646 1.497 2.809 3.317 2.809 2.366 0 3.848-2.033 3.848-5.598-.006-3.719-1.905-4.847-3.72-4.862Zm.005 1.293c1.178 0 2.048.999 2.048 2.117.005 1.134-.915 2.128-2.078 2.128-1.168 0-2.014-.934-2.019-2.113 0-1.183.88-2.132 2.049-2.132Z" fill="#222"/><path fill="#fff" d="M36.754 209h36v36h-36z"/><path d="M50.748 232.139c2.078 0 3.604-1.243 3.6-2.933.004-1.288-.776-2.212-2.129-2.421v-.08c1.064-.273 1.755-1.108 1.75-2.252.005-1.496-1.223-2.774-3.181-2.774-1.87 0-3.371 1.129-3.42 2.784h1.486c.034-.935.914-1.501 1.914-1.501 1.039 0 1.72.631 1.715 1.571.005.984-.786 1.63-1.914 1.63h-.86v1.253h.86c1.412 0 2.227.716 2.227 1.74 0 .99-.86 1.661-2.058 1.661-1.104 0-1.964-.567-2.024-1.472h-1.56c.064 1.661 1.535 2.794 3.594 2.794Zm9.023.03c2.352 0 3.729-1.919 3.729-5.255 0-3.311-1.397-5.235-3.729-5.235-2.336 0-3.729 1.919-3.733 5.235 0 3.331 1.377 5.25 3.733 5.255Zm0-1.327c-1.377 0-2.207-1.382-2.207-3.928.005-2.535.835-3.932 2.207-3.932 1.367 0 2.203 1.397 2.203 3.932 0 2.546-.83 3.928-2.203 3.928Z" fill="#222"/><path fill="#fff" d="M72.754 209h36v36h-36z"/><path d="M87.458 232.139c2.078 0 3.604-1.243 3.6-2.933.004-1.288-.776-2.212-2.129-2.421v-.08c1.064-.273 1.755-1.108 1.75-2.252.005-1.496-1.223-2.774-3.181-2.774-1.87 0-3.371 1.129-3.42 2.784h1.486c.034-.935.914-1.501 1.914-1.501 1.039 0 1.72.631 1.715 1.571.005.984-.786 1.63-1.914 1.63h-.86v1.253h.86c1.412 0 2.227.716 2.227 1.74 0 .99-.86 1.661-2.058 1.661-1.104 0-1.964-.567-2.024-1.472h-1.56c.064 1.661 1.535 2.794 3.594 2.794Zm9.341-10.321h-1.496l-2.54 1.661v1.471l2.435-1.591h.06V232H96.8v-10.182Z" fill="#222"/><path fill="#fff" d="M108.754 209h36v36h-36z"/><path fill="#fff" d="M144.754 209h36v36h-36zm36 0h36v36h-36zm36 0h36v36h-36z"/><path d="M93.456 12.685c-.077 1.07-.474 1.914-1.19 2.529-.71.615-1.65.923-2.816.923-1.276 0-2.28-.429-3.014-1.285-.73-.862-1.094-2.042-1.094-3.542v-.608c0-.957.168-1.8.506-2.53.337-.728.818-1.287 1.442-1.674.629-.392 1.358-.588 2.188-.588 1.148 0 2.073.308 2.775.923s1.107 1.479 1.217 2.59h-2.051c-.05-.642-.23-1.107-.54-1.394-.305-.291-.773-.437-1.401-.437-.684 0-1.197.246-1.538.738-.338.488-.511 1.246-.52 2.276v.752c0 1.076.162 1.862.485 2.359.328.496.843.745 1.545.745.634 0 1.105-.144 1.415-.43.315-.292.495-.741.54-1.347h2.051Zm3.486 1.722h3.617V16h-6.14v-1.203l3.48-4.594h-3.377v-1.6h5.927v1.17l-3.507 4.634Zm8.149 1.73c-1.085 0-1.969-.333-2.653-.998-.679-.666-1.018-1.552-1.018-2.66v-.19c0-.744.143-1.407.431-1.99a3.14 3.14 0 0 1 1.216-1.354c.529-.319 1.131-.478 1.805-.478 1.012 0 1.807.319 2.386.957.583.638.875 1.543.875 2.714v.806h-4.71c.064.483.255.87.574 1.162.324.292.732.438 1.224.438.761 0 1.355-.276 1.784-.827l.971 1.087a3 3 0 0 1-1.204.984 3.976 3.976 0 0 1-1.681.349Zm-.226-6.07c-.392 0-.711.132-.957.396-.241.264-.396.643-.465 1.135h2.748v-.158c-.009-.437-.127-.774-.355-1.011-.228-.242-.551-.363-.971-.363Zm8.552.39a5.363 5.363 0 0 0-.711-.056c-.747 0-1.237.253-1.47.76V16h-1.975V8.604h1.866l.055.881c.396-.679.945-1.018 1.647-1.018.219 0 .424.03.615.089l-.027 1.9Zm7.513 2.856.97-4.71h1.908L121.921 16h-1.654l-1.402-4.655L117.464 16h-1.648l-1.886-7.396h1.907l.964 4.703 1.353-4.703h1.429l1.347 4.71ZM126.877 16h-1.982V8.604h1.982V16Zm-2.099-9.31a.98.98 0 0 1 .294-.732c.201-.191.472-.287.814-.287.337 0 .606.096.806.287a.966.966 0 0 1 .301.731.967.967 0 0 1-.307.739c-.201.191-.468.287-.8.287-.333 0-.602-.096-.807-.287a.977.977 0 0 1-.301-.739Zm7.137 9.447c-1.085 0-1.969-.333-2.652-.998-.679-.666-1.019-1.552-1.019-2.66v-.19c0-.744.144-1.407.431-1.99a3.142 3.142 0 0 1 1.217-1.354c.528-.319 1.13-.478 1.804-.478 1.012 0 1.807.319 2.386.957.583.638.875 1.543.875 2.714v.806h-4.71c.064.483.255.87.574 1.162.324.292.732.438 1.224.438.761 0 1.356-.276 1.784-.827l.971 1.087a2.99 2.99 0 0 1-1.203.984 3.983 3.983 0 0 1-1.682.349Zm-.226-6.07c-.391 0-.71.132-.957.396-.241.264-.396.643-.464 1.135h2.748v-.158c-.009-.437-.128-.774-.356-1.011-.228-.242-.551-.363-.971-.363Zm7.472 4.477c.365 0 .661-.1.889-.3.228-.201.346-.468.355-.8h1.853a2.554 2.554 0 0 1-.41 1.38 2.733 2.733 0 0 1-1.108.97c-.465.229-.98.343-1.545.343-1.057 0-1.891-.335-2.502-1.005-.61-.675-.916-1.604-.916-2.79v-.13c0-1.138.303-2.048.91-2.727.606-.679 1.437-1.018 2.495-1.018.925 0 1.665.264 2.221.793.561.524.846 1.223.855 2.098h-1.853c-.009-.382-.127-.692-.355-.93-.228-.24-.529-.362-.903-.362-.46 0-.808.169-1.045.506-.233.333-.349.875-.349 1.627v.205c0 .761.116 1.308.349 1.64.232.334.585.5 1.059.5ZM153.612 16h-6.822v-1.354l3.22-3.431c.442-.483.768-.905.977-1.265.214-.36.322-.702.322-1.025 0-.442-.112-.789-.335-1.04-.224-.254-.543-.382-.957-.382-.447 0-.8.155-1.06.465-.255.305-.383.708-.383 1.21h-1.982c0-.606.143-1.16.43-1.661a3.061 3.061 0 0 1 1.231-1.176c.529-.287 1.128-.43 1.798-.43 1.025 0 1.82.245 2.386.737.569.493.854 1.188.854 2.085 0 .493-.128.994-.383 1.504s-.693 1.105-1.312 1.784l-2.263 2.386h4.279V16Zm7.916-4.115c0 1.376-.285 2.429-.854 3.158-.57.73-1.404 1.094-2.502 1.094-1.085 0-1.914-.358-2.488-1.074-.575-.715-.869-1.74-.882-3.076v-1.832c0-1.39.287-2.445.861-3.165.579-.72 1.411-1.08 2.495-1.08 1.085 0 1.914.358 2.488 1.073.575.711.869 1.734.882 3.07v1.832Zm-1.975-2.01c0-.825-.114-1.424-.342-1.798-.223-.378-.574-.567-1.053-.567-.465 0-.809.18-1.032.54-.219.355-.335.914-.349 1.675v2.42c0 .81.11 1.415.328 1.811.224.392.579.588 1.067.588.483 0 .832-.19 1.046-.567.214-.379.326-.957.335-1.737V9.875ZM169.69 16h-6.822v-1.354l3.22-3.431c.442-.483.768-.905.977-1.265.215-.36.322-.702.322-1.025 0-.442-.112-.789-.335-1.04-.224-.254-.543-.382-.957-.382-.447 0-.8.155-1.06.465-.255.305-.383.708-.383 1.21h-1.982c0-.606.143-1.16.431-1.661a3.052 3.052 0 0 1 1.23-1.176c.529-.287 1.128-.43 1.798-.43 1.025 0 1.821.245 2.386.737.569.493.854 1.188.854 2.085 0 .493-.127.994-.383 1.504-.255.51-.692 1.105-1.312 1.784l-2.263 2.386h4.279V16Zm6.016 0h-1.976V8.385l-2.358.731V7.51l4.122-1.477h.212V16Z" fill="#222"/><path d="m232.754 5 6 6-6 6m-212-12-6 6 6 6" stroke="#222" stroke-width="2" stroke-linecap="round" stroke-linejoin="round"/></svg>