<svg width="25" height="24" fill="none" xmlns="http://www.w3.org/2000/svg"><path d="M18.212 17.411 21.8 21m-7.125-2.175c-.618.117-1.246.175-1.875.175-4.478 0-8.268-2.943-9.543-7A9.97 9.97 0 0 1 4.82 8.971l9.855 9.854Zm-3.997-8.946a3 3 0 0 1 4.243 4.243l-4.243-4.243Zm0-.001 4.242 4.242-4.242-4.242Zm.002.002L7.39 6.59l3.29 3.29Zm4.242 4.242 3.29 3.29-3.29-3.29ZM3.8 3l3.59 3.59L3.8 3Zm3.59 3.59A9.953 9.953 0 0 1 12.8 5c4.478 0 8.268 2.943 9.543 7a10.024 10.024 0 0 1-4.132 5.411L7.39 6.59Z" stroke="#3B82F6" stroke-width="2" stroke-linecap="round" stroke-linejoin="round"/></svg>