<svg width="1394" height="476" fill="none" xmlns="http://www.w3.org/2000/svg"><path d="M1067.04 466.035c0-.387-.14-.683-.41-.886-.27-.208-.76-.424-1.47-.648-.71-.229-1.27-.454-1.69-.675-1.12-.604-1.68-1.424-1.68-2.458.01-.538.16-1.017.46-1.438.31-.426.75-.758 1.31-.998.57-.241 1.21-.363 1.92-.366.71-.004 1.34.122 1.9.379.55.252.98.612 1.28 1.08.31.467.46 1 .46 1.597l-2.05.011c0-.456-.14-.808-.43-1.057-.28-.254-.69-.379-1.2-.376-.51.002-.9.112-1.18.327-.27.211-.42.49-.42.837 0 .323.16.593.48.81.33.217.81.42 1.44.608 1.17.344 2.02.775 2.55 1.291.53.517.79 1.163.79 1.937-.01.862-.34 1.54-.99 2.036-.66.491-1.54.74-2.64.746-.76.004-1.46-.131-2.09-.406-.63-.279-1.1-.661-1.43-1.147-.33-.486-.49-1.05-.49-1.693l2.06-.011c-.01 1.098.65 1.644 1.96 1.637.49-.003.87-.103 1.14-.301.28-.202.42-.48.42-.836Zm3.02-1.172c0-.733.15-1.388.43-1.964.29-.576.7-1.022 1.23-1.339.53-.318 1.15-.478 1.85-.482 1-.006 1.81.295 2.44.902.63.607.98 1.435 1.04 2.483l.01.505c0 1.135-.32 2.048-.96 2.74-.64.687-1.49 1.034-2.56 1.039-1.06.006-1.91-.331-2.55-1.011-.63-.68-.94-1.608-.93-2.784v-.089Zm1.97.133c0 .702.13 1.239.39 1.611.26.368.64.55 1.13.548.48-.003.86-.187 1.13-.553.27-.371.41-.96.41-1.766 0-.688-.13-1.221-.4-1.598-.26-.376-.64-.563-1.13-.561-.48.003-.85.194-1.12.574-.27.375-.4.957-.41 1.745Zm12.92-.078c-.01 1.185-.27 2.112-.78 2.78-.51.663-1.22.998-2.12 1.003-.8.004-1.44-.3-1.92-.913l-.09.787-1.78.01.06-10.5 1.97-.011-.02 3.767c.46-.536 1.06-.806 1.81-.81.9-.005 1.6.324 2.11.986.51.658.76 1.589.76 2.792v.109Zm-1.98-.132c.01-.748-.11-1.292-.35-1.632-.23-.345-.58-.516-1.05-.514-.63.004-1.07.263-1.31.78l-.01 2.919c.24.518.67.775 1.31.772.64-.004 1.06-.321 1.26-.951.1-.301.15-.759.15-1.374Zm-264.141 1.908c-.083 1.072-.484 1.917-1.203 2.536-.714.619-1.654.932-2.821.938-1.276.007-2.279-.416-3.008-1.268-.724-.858-1.082-2.036-1.074-3.535l.003-.609c.005-.957.178-1.801.519-2.532.342-.731.825-1.292 1.452-1.682.631-.396 1.361-.596 2.19-.6 1.149-.007 2.072.296 2.771.907.698.612 1.099 1.473 1.203 2.584l-2.051.012c-.047-.643-.224-1.107-.533-1.392-.303-.29-.77-.433-1.399-.43-.683.004-1.197.253-1.542.747-.34.489-.517 1.249-.531 2.279l-.005.752c-.005 1.076.152 1.861.473 2.356.326.495.839.74 1.541.736.633-.003 1.106-.149 1.417-.438.316-.293.499-.743.548-1.35l2.05-.011Zm3.477 1.704 3.617-.02-.009 1.593-6.139.033.007-1.203 3.504-4.613-3.377.019.009-1.6 5.926-.032-.006 1.169-3.532 4.654Zm11.292-1.156.996-4.715 1.908-.011-1.927 7.407-1.654.009-1.377-4.647-1.426 4.662-1.647.009-1.847-7.386 1.907-.01.938 4.698 1.379-4.711 1.429-.008 1.321 4.703Zm-253.312 1.467c.002-.388-.133-.683-.406-.887-.272-.208-.763-.424-1.473-.648-.709-.228-1.271-.453-1.684-.674-1.127-.605-1.688-1.424-1.682-2.459a2.426 2.426 0 0 1 .459-1.438c.307-.425.744-.758 1.311-.998.571-.24 1.209-.362 1.916-.366.71-.004 1.343.123 1.898.379.554.252.983.612 1.286 1.08.307.468.459 1 .456 1.597l-2.051.011c.003-.455-.139-.808-.425-1.057-.285-.253-.688-.379-1.207-.376-.502.003-.892.112-1.171.328-.279.211-.42.49-.422.836-.001.324.159.594.481.811.327.217.807.419 1.439.607 1.165.345 2.013.775 2.543 1.292.531.516.794 1.162.79 1.937-.005.861-.335 1.54-.989 2.035-.654.492-1.533.74-2.636.746-.765.004-1.462-.131-2.089-.405-.628-.279-1.106-.662-1.436-1.148-.326-.485-.487-1.05-.483-1.692l2.057-.012c-.006 1.099.648 1.644 1.96 1.637.488-.003.869-.103 1.143-.3a.987.987 0 0 0 .415-.836Zm-1.17-10.001 2.153-.012-1.904 2.129-1.607.009 1.358-2.126Zm8.664 7.027a5.386 5.386 0 0 0-.711-.051c-.747.004-1.238.26-1.473.767l-.026 4.84-1.976.011.04-7.397 1.866-.01.05.882c.4-.682.951-1.024 1.653-1.028.219-.001.424.027.615.086l-.038 1.9Zm.394 1.775c.004-.734.149-1.388.434-1.964a3.166 3.166 0 0 1 1.224-1.34c.535-.317 1.153-.478 1.855-.482.998-.005 1.81.296 2.436.903.63.607.979 1.435 1.046 2.482l.011.506c-.006 1.135-.328 2.048-.965 2.74-.637.687-1.489 1.033-2.555 1.039-1.067.006-1.917-.331-2.552-1.011-.629-.68-.941-1.608-.935-2.784l.001-.089Zm1.975.133c-.004.702.125 1.239.387 1.611.263.368.64.55 1.132.547.479-.002.853-.187 1.124-.553.271-.37.409-.959.413-1.766.004-.688-.128-1.22-.395-1.597s-.644-.564-1.131-.561c-.483.003-.858.194-1.125.574-.266.375-.401.956-.405 1.745Zm-253.04 2.141 1.378-7.089 2.044-.011-2.262 9.965-2.064.011-1.585-6.649-1.656 6.667-2.064.012-2.154-9.941 2.044-.012 1.308 7.061 1.679-7.077 1.736-.009 1.596 7.072Zm6.767-6.38-.01 1.818 1.265-.007-.008 1.449-1.264.007-.02 3.692c-.002.273.05.469.154.587s.304.176.6.174c.219-.001.413-.018.582-.051l-.008 1.497a4.071 4.071 0 0 1-1.198.184c-1.385.008-2.088-.688-2.107-2.086l.021-3.986-1.08.006.008-1.449 1.08-.006.01-1.818 1.975-.011Zm1.823 5.438c.004-.734.149-1.389.435-1.964a3.148 3.148 0 0 1 1.224-1.34c.535-.317 1.153-.478 1.855-.482.998-.005 1.81.295 2.435.903.63.607.979 1.434 1.046 2.482l.011.506c-.006 1.135-.327 2.048-.965 2.739-.637.687-1.489 1.034-2.555 1.04-1.066.006-1.917-.331-2.551-1.012-.63-.68-.941-1.608-.935-2.783v-.089Zm1.975.133c-.004.701.126 1.238.388 1.611.262.367.639.55 1.132.547.478-.003.853-.187 1.124-.553.271-.371.408-.959.413-1.766.003-.688-.128-1.22-.395-1.597s-.644-.564-1.132-.561c-.483.002-.858.193-1.124.573-.266.375-.402.957-.406 1.746Zm961.656-1.66-2.05.012-3.96-6.527-.03 6.549-2.05.011.05-9.953 2.05-.011 3.96 6.54.04-6.562 2.04-.012-.05 9.953Zm3.75-.02-1.99.011.04-7.397 1.99-.011-.04 7.397Zm-2.05-9.299c0-.296.1-.541.29-.733.21-.193.48-.29.82-.292.34-.002.61.093.8.283.2.19.3.434.3.73 0 .301-.1.547-.31.74-.2.192-.47.289-.8.291-.33.002-.6-.092-.81-.282-.2-.191-.29-.436-.29-.737Zm7.08 9.408c-1.08.006-1.96-.322-2.64-.984-.68-.661-1.01-1.546-1.01-2.653v-.192c.01-.742.15-1.406.44-1.991.29-.59.7-1.043 1.23-1.36.53-.322 1.13-.485 1.81-.489 1.01-.005 1.8.309 2.38.944.58.635.86 1.538.86 2.709l-.01.807-4.71.026c.06.482.25.869.57 1.159.32.289.73.433 1.22.43.76-.004 1.36-.283 1.79-.837l.96 1.082c-.29.421-.7.751-1.2.991-.51.235-1.07.354-1.69.358Zm-.19-6.069c-.39.002-.71.136-.96.402-.24.265-.4.644-.47 1.137l2.75-.015v-.157c-.01-.438-.13-.774-.35-1.01-.23-.24-.55-.359-.97-.357Zm4.08 2.158c0-1.153.26-2.073.78-2.759.53-.687 1.24-1.032 2.13-1.037.72-.004 1.32.262 1.78.797l.02-3.774 1.99-.011-.06 10.5-1.78.01-.1-.786c-.49.618-1.13.93-1.9.934-.87.005-1.57-.333-2.09-1.014-.52-.685-.78-1.639-.77-2.86Zm1.97.133c0 .692.11 1.223.35 1.59.24.368.59.551 1.05.548.61-.003 1.05-.263 1.3-.779l.02-2.919c-.25-.514-.67-.769-1.28-.765-.95.005-1.43.78-1.44 2.325Zm8.48 1.97 3.62-.02-.01 1.593-6.14.033.01-1.203 3.5-4.613-3.38.019.01-1.6 5.93-.032-.01 1.169-3.53 4.654Zm.98-8.913 2.16-.011-1.91 2.129-1.6.009 1.35-2.127ZM87.95 470.517l-.019 3.507-2.05.011.053-9.953 3.883-.021c.747-.004 1.403.129 1.967.399a2.97 2.97 0 0 1 1.306 1.162c.302.5.452 1.071.448 1.713-.005.976-.344 1.748-1.017 2.316-.668.565-1.593.85-2.773.856l-1.798.01Zm.01-1.661 1.831-.01c.543-.003.956-.133 1.24-.39.288-.256.434-.622.436-1.096.003-.487-.139-.881-.424-1.18-.286-.299-.681-.452-1.187-.458l-1.88.01-.017 3.124Zm6.445 1.366c.004-.734.148-1.388.434-1.964a3.162 3.162 0 0 1 1.224-1.34c.535-.317 1.153-.478 1.855-.482.998-.005 1.81.296 2.436.903.63.607.978 1.435 1.046 2.482l.011.506c-.006 1.135-.328 2.048-.965 2.74-.637.687-1.49 1.033-2.555 1.039-1.067.006-1.917-.331-2.552-1.011-.63-.68-.941-1.608-.935-2.784v-.089Zm1.974.133c-.003.702.126 1.239.388 1.611.263.368.64.55 1.132.547.479-.002.853-.187 1.124-.553.271-.37.409-.959.413-1.766.004-.688-.128-1.22-.395-1.597s-.644-.564-1.132-.561c-.483.003-.857.194-1.124.573-.266.376-.401.957-.406 1.746Zm8.087-3.818.057.854c.532-.663 1.243-.998 2.131-1.003.784-.004 1.366.223 1.747.681.38.458.572 1.145.576 2.061l-.025 4.779-1.976.01.026-4.73c.002-.419-.088-.722-.269-.908-.181-.19-.484-.284-.908-.282-.556.003-.974.243-1.254.718l-.029 5.216-1.975.011.04-7.397 1.859-.01ZM33.19 426.011c-.007 1.377-.298 2.431-.871 3.163-.574.732-1.41 1.102-2.508 1.108-1.085.006-1.912-.348-2.483-1.06-.57-.712-.858-1.736-.865-3.071l.01-1.832c.008-1.39.3-2.447.879-3.17.582-.723 1.416-1.088 2.5-1.094 1.085-.006 1.913.347 2.483 1.06.57.708.859 1.729.865 3.064l-.01 1.832Zm-1.964-1.999c.004-.825-.107-1.423-.332-1.796-.222-.377-.572-.564-1.05-.561-.465.002-.81.184-1.035.546-.221.356-.34.915-.358 1.676l-.013 2.42c-.004.811.102 1.415.318 1.81.221.39.576.584 1.064.582.483-.003.832-.194 1.049-.573.216-.38.33-.959.344-1.738l.013-2.366Zm-13.279-77.585-6.822.038.008-1.354 3.238-3.449c.444-.485.772-.909.984-1.27.216-.361.325-.703.327-1.027.002-.442-.107-.788-.33-1.037-.221-.254-.54-.38-.954-.378-.447.003-.801.16-1.063.471-.256.307-.386.711-.389 1.212l-1.982.011c.003-.606.15-1.161.44-1.664a3.104 3.104 0 0 1 1.236-1.182c.53-.29 1.13-.437 1.8-.441 1.026-.005 1.82.236 2.382.725.567.49.848 1.183.843 2.081-.002.492-.133.994-.39 1.506-.259.512-.7 1.109-1.323 1.791l-2.275 2.398 4.279-.023-.009 1.592Zm7.939-4.158c-.008 1.376-.298 2.43-.872 3.163-.574.732-1.41 1.101-2.508 1.107-1.084.006-1.912-.347-2.482-1.059-.57-.713-.859-1.737-.866-3.072l.01-1.832c.008-1.39.3-2.446.879-3.169.582-.724 1.416-1.088 2.5-1.094 1.085-.006 1.913.347 2.483 1.059.57.708.859 1.73.865 3.065l-.01 1.832Zm-1.965-1.999c.004-.825-.107-1.424-.332-1.796-.222-.377-.572-.564-1.05-.562-.465.003-.81.185-1.035.546-.22.357-.34.916-.358 1.677l-.013 2.42c-.004.811.102 1.414.319 1.809.22.391.575.585 1.063.582.483-.002.832-.193 1.049-.573.216-.379.33-.959.344-1.738l.013-2.365Zm10.003 1.955c-.007 1.376-.297 2.43-.871 3.162-.574.733-1.41 1.102-2.508 1.108-1.085.006-1.912-.347-2.482-1.06-.57-.712-.86-1.736-.866-3.071l.01-1.832c.008-1.39.3-2.446.879-3.17.582-.723 1.416-1.087 2.5-1.093 1.085-.006 1.913.347 2.483 1.059.57.708.859 1.729.865 3.065l-.01 1.832Zm-1.964-1.999c.004-.825-.107-1.424-.332-1.796-.222-.377-.572-.564-1.05-.562-.465.003-.81.185-1.035.546-.22.357-.34.915-.358 1.677l-.013 2.419c-.004.812.102 1.415.319 1.81.22.391.575.585 1.063.582.483-.002.832-.193 1.049-.573.216-.379.33-.959.344-1.738l.013-2.365Zm-14.52-81.324 1.127-.007-.008 1.593-1.128.006-.012 2.154-1.975.01.011-2.153-4.08.023-.083-1.244 4.185-6.578 1.996-.011-.034 6.207Zm-4.177.023 2.2-.013.02-3.513-.131.226-2.09 3.3Zm13.072-.441c-.008 1.376-.298 2.43-.872 3.162-.573.733-1.41 1.102-2.508 1.108-1.084.006-1.912-.347-2.482-1.06-.57-.712-.859-1.736-.865-3.071l.01-1.832c.007-1.39.3-2.446.878-3.17.583-.723 1.416-1.087 2.5-1.093 1.085-.006 1.913.347 2.483 1.059.57.708.86 1.729.866 3.065l-.01 1.832Zm-1.965-1.999c.004-.825-.106-1.424-.332-1.796-.221-.377-.571-.564-1.05-.562-.465.003-.81.185-1.035.546-.22.357-.34.915-.357 1.677l-.014 2.419c-.004.812.102 1.415.319 1.81.221.391.575.585 1.063.582.483-.002.833-.193 1.049-.573.216-.379.33-.959.344-1.738l.013-2.365Zm10.004 1.954c-.008 1.377-.298 2.431-.872 3.163-.573.733-1.41 1.102-2.508 1.108-1.084.006-1.912-.347-2.482-1.06-.57-.712-.859-1.736-.865-3.071l.01-1.832c.007-1.39.3-2.447.878-3.17.582-.723 1.416-1.088 2.5-1.094 1.085-.006 1.913.348 2.483 1.06.57.708.86 1.729.865 3.064l-.01 1.832Zm-1.965-1.998c.004-.825-.106-1.424-.332-1.796-.221-.377-.571-.565-1.05-.562-.465.003-.81.184-1.035.546-.22.356-.34.915-.358 1.676l-.013 2.42c-.004.812.102 1.415.319 1.81.22.391.575.585 1.063.582.483-.003.833-.194 1.049-.573.216-.38.33-.959.344-1.738l.013-2.365ZM17.441 168.81l-.009 1.627-.191.001c-.893.018-1.615.255-2.164.709-.545.454-.874 1.083-.988 1.885.532-.54 1.201-.813 2.008-.817.865-.005 1.552.301 2.059.918.507.617.758 1.431.753 2.443a3.67 3.67 0 0 1-.434 1.759c-.28.526-.68.936-1.196 1.23-.512.295-1.091.444-1.739.447-1.048.006-1.893-.354-2.537-1.08-.638-.725-.954-1.696-.948-2.913l.004-.711c.006-1.08.214-2.034.624-2.861.415-.831 1.004-1.475 1.767-1.93.768-.46 1.656-.695 2.663-.705l.328-.002Zm-1.954 4.994a1.576 1.576 0 0 0-.87.257 1.51 1.51 0 0 0-.578.66l-.003.601c-.003.661.124 1.178.381 1.55.258.368.622.55 1.091.548a1.255 1.255 0 0 0 1.028-.505c.266-.339.4-.775.404-1.308.003-.542-.127-.979-.39-1.31-.262-.331-.617-.496-1.064-.493Zm11.3.895c-.007 1.376-.297 2.43-.87 3.163-.574.732-1.41 1.101-2.509 1.107-1.084.006-1.912-.347-2.482-1.06-.57-.712-.859-1.736-.865-3.071l.01-1.832c.007-1.39.3-2.446.878-3.17.583-.723 1.416-1.087 2.501-1.093 1.085-.006 1.912.347 2.482 1.059.57.708.86 1.73.866 3.065l-.01 1.832Zm-1.964-1.999c.005-.825-.106-1.424-.332-1.796-.221-.377-.571-.564-1.05-.562-.464.003-.81.185-1.035.546-.22.357-.34.916-.357 1.677l-.014 2.42c-.004.811.102 1.414.319 1.809.221.391.576.585 1.063.582.483-.002.833-.193 1.05-.573.215-.379.33-.959.343-1.738l.013-2.365Zm10.004 1.955c-.008 1.376-.298 2.43-.872 3.162-.573.733-1.41 1.102-2.507 1.108-1.085.006-1.913-.347-2.483-1.06-.57-.712-.859-1.736-.865-3.071l.01-1.832c.007-1.39.3-2.446.878-3.17.583-.723 1.416-1.088 2.5-1.093 1.086-.006 1.913.347 2.483 1.059.57.708.86 1.729.866 3.065l-.01 1.832Zm-1.965-1.999c.005-.825-.106-1.424-.332-1.796-.221-.377-.571-.565-1.05-.562-.465.003-.81.185-1.035.546-.22.356-.34.915-.358 1.677l-.012 2.419c-.005.812.101 1.415.318 1.81.221.391.575.585 1.063.582.483-.003.833-.194 1.049-.573.216-.379.331-.959.344-1.738l.013-2.365Zm-13.859-84.89a2.335 2.335 0 0 1-.369 1.287 2.65 2.65 0 0 1-1.003.901c.482.23.863.55 1.144.958.28.404.419.882.416 1.433-.005.884-.31 1.585-.914 2.104-.604.513-1.424.773-2.458.779-1.035.006-1.854-.247-2.457-.76-.603-.51-.903-1.206-.898-2.086.003-.551.147-1.033.432-1.445a2.879 2.879 0 0 1 1.146-.963 2.566 2.566 0 0 1-.993-.89 2.329 2.329 0 0 1-.348-1.283c.004-.848.29-1.524.858-2.028.568-.51 1.337-.766 2.308-.772.966-.005 1.73.242 2.293.74.567.493.848 1.168.843 2.025Zm-1.794 4.447c.002-.433-.121-.78-.37-1.037-.25-.259-.586-.387-1.01-.385-.42.003-.755.134-1.007.396-.252.256-.38.603-.381 1.04-.003.424.118.766.363 1.024s.586.386 1.023.384c.429-.002.764-.13 1.007-.381.248-.252.373-.6.375-1.041Zm-.182-4.34c.002-.388-.098-.697-.302-.928-.204-.236-.493-.353-.867-.35-.369.001-.656.117-.863.346-.206.229-.31.544-.312.945-.002.396.098.715.302.955s.493.36.866.358c.374-.002.662-.125.864-.367.206-.243.31-.563.312-.96Zm10.21 3.04c-.007 1.377-.298 2.43-.871 3.163-.574.732-1.41 1.102-2.508 1.108-1.085.006-1.912-.348-2.483-1.06-.57-.712-.858-1.736-.865-3.071l.01-1.832c.007-1.39.3-2.447.878-3.17.583-.723 1.417-1.088 2.501-1.094 1.085-.006 1.912.348 2.483 1.06.57.708.858 1.73.865 3.064l-.01 1.832Zm-1.965-1.999c.005-.824-.106-1.423-.332-1.796-.221-.376-.57-.564-1.05-.561-.464.002-.81.184-1.035.546-.22.356-.34.915-.357 1.676l-.013 2.42c-.005.811.102 1.415.318 1.81.221.39.576.585 1.063.582.483-.003.833-.194 1.05-.573.215-.38.33-.959.344-1.738l.012-2.366Zm10.004 1.955c-.007 1.376-.298 2.43-.872 3.163-.573.732-1.409 1.101-2.507 1.108-1.085.005-1.912-.348-2.483-1.06-.57-.712-.859-1.736-.865-3.071l.01-1.832c.007-1.39.3-2.447.878-3.17.583-.723 1.416-1.088 2.501-1.094 1.085-.006 1.912.347 2.483 1.06.57.707.858 1.729.865 3.064l-.01 1.832Zm-1.965-1.999c.005-.825-.106-1.423-.332-1.796-.221-.377-.571-.564-1.05-.561-.464.002-.81.184-1.035.545-.22.357-.34.916-.357 1.677l-.013 2.42c-.005.811.101 1.414.318 1.81.221.39.576.584 1.063.582.483-.003.833-.194 1.05-.573.215-.38.33-.96.343-1.739l.013-2.365ZM9.237 11.149l-1.976.01.041-7.614-2.362.744.008-1.606 4.13-1.5h.212l-.053 9.966Zm9.961-4.17c-.007 1.376-.298 2.43-.872 3.163-.573.732-1.409 1.101-2.507 1.107-1.085.006-1.912-.347-2.483-1.059-.57-.712-.859-1.736-.865-3.071l.01-1.832c.007-1.39.3-2.447.878-3.17.583-.723 1.416-1.088 2.501-1.094 1.085-.006 1.912.347 2.483 1.06.57.708.858 1.729.865 3.064l-.01 1.832ZM17.233 4.98c.005-.825-.106-1.423-.332-1.796-.221-.377-.571-.564-1.05-.561-.464.002-.81.184-1.035.545-.22.357-.34.916-.357 1.677l-.013 2.42c-.005.811.101 1.414.318 1.81.221.39.576.584 1.063.582.483-.003.833-.194 1.05-.573.215-.38.33-.96.344-1.738l.012-2.366Zm10.004 1.955c-.007 1.376-.298 2.43-.872 3.163-.573.732-1.41 1.101-2.507 1.107-1.085.006-1.913-.347-2.483-1.06-.57-.712-.859-1.735-.865-3.07l.01-1.832c.007-1.39.3-2.447.878-3.17C21.981 1.35 22.814.985 23.9.979c1.085-.006 1.912.347 2.482 1.06.57.707.86 1.729.866 3.064l-.01 1.832Zm-1.965-1.999c.005-.825-.106-1.423-.332-1.796-.221-.377-.571-.564-1.05-.561-.464.002-.81.184-1.035.545-.22.357-.34.916-.357 1.677l-.013 2.42c-.005.811.101 1.414.318 1.81.221.39.576.584 1.063.582.483-.003.833-.194 1.05-.573.215-.38.33-.96.343-1.739l.013-2.365Zm10.004 1.955c-.008 1.376-.298 2.43-.872 3.163-.573.732-1.41 1.101-2.507 1.107-1.085.006-1.912-.347-2.483-1.06-.57-.712-.859-1.735-.865-3.07l.01-1.833c.007-1.39.3-2.446.878-3.17.583-.723 1.416-1.087 2.501-1.093 1.085-.006 1.912.347 2.482 1.06.57.707.86 1.729.866 3.064l-.01 1.832ZM33.31 4.892c.005-.825-.106-1.424-.332-1.796-.221-.377-.571-.564-1.05-.562-.464.003-.81.185-1.035.546-.22.357-.34.916-.357 1.677l-.013 2.42c-.005.81.101 1.414.318 1.81.221.39.576.584 1.063.581.483-.002.833-.193 1.05-.573.215-.38.33-.958.343-1.738l.013-2.365Z" fill="#999"/><path d="M47 425.003s11.846-1.861 19-4.5c7.21-2.659 10.951-4.978 17.5-9 39.593-24.312 43.972-59.553 61.708-101.718 17.736-42.165 35.473-121.404 53.209-122.259 17.736-.856 35.472 76.671 53.208 106.694 17.736 30.024 35.472 12.543 53.208 20.972 17.736 8.43 35.473 42.769 53.209 63.871 17.736 21.102 35.472 28.966 53.208-6.701 17.736-35.666 35.472-114.862 53.208-130.961 17.736-16.099 35.473 30.9 53.209 17.328 17.736-13.572 35.472-87.715 53.208-77.399 17.736 10.315 35.472 105.088 53.208 120.569 17.736 15.482 35.473-48.329 53.209-60.84 17.736-12.511 35.472 26.278 53.208 17.947 17.736-8.332 35.472-63.784 53.208-92.093 17.736-28.309 35.473-29.476 53.209-13.954 17.736 15.522 35.472 47.732 53.208 61.501 17.736 13.768 35.472 9.095 53.208-9.56 17.736-18.654 35.473-51.288 53.209-28.436 17.738 22.852 35.468 101.191 53.208 131.884 17.74 30.692 35.47 13.737 53.21 7.91 17.73-5.826 35.47-.524 53.21 6.088 17.73 6.613 35.47 14.537 53.21-10.325 17.73-24.862 35.47-82.509 53.2-70.064 17.74 12.444 35.48 94.981 53.21 117.423 17.74 22.443 35.47-15.208 44.34-34.034l8.87-18.825" stroke="#18A0FB" stroke-width="3"/></svg>