<svg width="291" height="180" fill="none" xmlns="http://www.w3.org/2000/svg"><path d="M220.983 172.507c-.883-.249-1.526-.557-1.929-.924a1.781 1.781 0 0 1-.594-1.371c.004-.616.252-1.126.744-1.53.497-.407 1.139-.613 1.926-.617.537-.003 1.015.098 1.433.303.421.206.745.49.973.854.23.364.345.763.342 1.196l-1.036.006c.002-.473-.146-.843-.445-1.109-.3-.271-.723-.405-1.271-.402-.509.003-.907.118-1.194.345-.284.224-.428.534-.43.932-.001.319.131.588.399.809.271.217.73.415 1.377.594.651.179 1.158.378 1.522.598.368.217.638.471.812.764.178.292.265.637.263 1.035a1.854 1.854 0 0 1-.749 1.529c-.496.383-1.158.576-1.985.581a3.703 3.703 0 0 1-1.502-.298c-.465-.205-.823-.486-1.075-.843a2.058 2.058 0 0 1-.37-1.217l1.037-.006c-.003.473.169.846.515 1.12.349.27.816.403 1.399.4.545-.003.962-.116 1.254-.34.291-.223.437-.527.44-.91.002-.383-.131-.678-.399-.884-.267-.209-.753-.414-1.457-.615Zm3.805.506c.003-.57.117-1.082.341-1.538.228-.456.542-.809.941-1.058a2.58 2.58 0 0 1 1.371-.378c.792-.005 1.429.266 1.913.811.488.545.729 1.273.724 2.182v.07a3.474 3.474 0 0 1-.336 1.527c-.217.449-.529.8-.935 1.052a2.58 2.58 0 0 1-1.388.384c-.787.004-1.425-.266-1.913-.811-.484-.545-.723-1.269-.718-2.171v-.07Zm.998.112c-.003.645.143 1.162.438 1.55.299.389.699.582 1.2.579a1.446 1.446 0 0 0 1.206-.597c.299-.4.451-.955.455-1.668.003-.637-.146-1.152-.448-1.544a1.417 1.417 0 0 0-1.2-.59c-.491.003-.887.2-1.19.592-.303.392-.457.952-.461 1.678Zm10.458-.057c-.005.888-.213 1.603-.624 2.146-.411.54-.96.811-1.648.815-.734.004-1.3-.252-1.698-.769l-.052.671-.913.005.044-8.25.994-.005-.017 3.078c.404-.5.958-.752 1.664-.756.705-.004 1.257.26 1.655.791.402.531.6 1.261.595 2.188v.086Zm-.993-.107c.003-.677-.124-1.199-.384-1.567-.259-.367-.634-.549-1.125-.547-.655.004-1.128.311-1.417.921l-.014 2.514c.301.607.774.909 1.419.905.476-.002.847-.189 1.114-.559.267-.37.403-.926.407-1.667Zm-60.324.804c-.101.827-.411 1.468-.929 1.922-.515.451-1.198.678-2.05.683-.924.005-1.663-.322-2.218-.982-.552-.659-.824-1.544-.819-2.654l.005-.752c.003-.727.136-1.366.397-1.919.264-.553.635-.978 1.113-1.274.478-.3 1.03-.451 1.657-.455.83-.004 1.495.225 1.994.687.499.46.787 1.099.865 1.918l-1.037.006c-.086-.622-.279-1.072-.578-1.35-.296-.278-.712-.415-1.249-.412-.659.003-1.178.25-1.556.739-.375.489-.565 1.183-.57 2.081l-.004.758c-.005.848.169 1.522.521 2.022.352.499.846.747 1.483.743.573-.003 1.013-.134 1.318-.393.31-.264.516-.718.62-1.363l1.037-.005Zm2.182 1.658 3.4-.019-.004.811-4.614.026.004-.731 3.229-4.277-3.158.018.004-.822 4.405-.024-.004.703-3.262 4.315Zm9.671-.612 1.141-4.448.994-.005-1.724 5.821-.805.004-1.389-4.396-1.399 4.411-.805.005-1.656-5.802.989-.006 1.12 4.344 1.377-4.358.8-.004 1.357 4.434Zm-59.408-1.79c-.883-.249-1.526-.557-1.929-.923a1.785 1.785 0 0 1-.594-1.372c.004-.616.252-1.126.744-1.53.497-.407 1.139-.613 1.926-.617.537-.003 1.015.098 1.433.304.421.205.745.49.973.854.23.364.345.762.342 1.195l-1.036.006c.002-.473-.146-.842-.446-1.109-.299-.271-.722-.404-1.27-.401-.509.002-.907.117-1.194.345-.285.223-.428.534-.43.931-.001.319.131.588.399.809.271.217.73.415 1.377.594.651.179 1.158.378 1.522.598.368.217.638.471.812.764.178.293.265.638.263 1.035-.003.634-.253 1.144-.749 1.529-.496.383-1.158.576-1.985.581a3.695 3.695 0 0 1-1.503-.298c-.464-.205-.822-.486-1.075-.843a2.064 2.064 0 0 1-.369-1.217l1.037-.006c-.003.473.169.846.515 1.12.349.27.816.404 1.399.4.545-.003.962-.116 1.254-.339.291-.224.437-.527.439-.911.003-.383-.13-.677-.398-.884-.267-.209-.753-.414-1.457-.615Zm.652-6.443 1.203-.006-1.448 1.587-.8.004 1.045-1.585Zm6.236 4.972a2.884 2.884 0 0 0-.489-.035c-.651.003-1.095.283-1.331.839l-.022 4.125-.994.006.032-5.812.966-.005.013.671c.329-.521.792-.783 1.39-.786.193-.001.34.023.44.073l-.005.924Zm.537 1.957a3.486 3.486 0 0 1 .341-1.538c.228-.456.542-.809.941-1.058a2.58 2.58 0 0 1 1.371-.378c.792-.004 1.429.266 1.913.811.488.545.729 1.273.724 2.182v.07a3.474 3.474 0 0 1-.336 1.527c-.217.449-.529.8-.935 1.053-.402.253-.865.38-1.387.383-.788.005-1.426-.266-1.914-.811-.484-.545-.723-1.269-.718-2.171v-.07Zm.998.113c-.003.644.143 1.161.438 1.549.299.389.699.582 1.2.579a1.444 1.444 0 0 0 1.206-.597c.3-.399.451-.955.455-1.668.003-.637-.146-1.152-.448-1.544a1.416 1.416 0 0 0-1.2-.589c-.491.002-.887.2-1.19.591-.303.392-.457.952-.461 1.679Zm-58.041.694.145 1.031.225-.931 1.576-5.465.87-.005 1.48 5.449.21.944.172-1.054 1.243-5.356 1.036-.005-1.938 7.83-.94.005-1.58-5.69-.12-.595-.127.597-1.702 5.708-.94.005-1.848-7.81 1.031-.006 1.207 5.348Zm9.296-4.804-.008 1.407 1.085-.006-.004.769-1.085.005-.02 3.604c0 .233.047.408.143.526.096.114.26.17.493.169.115 0 .272-.023.473-.067l-.004.806a2.88 2.88 0 0 1-.764.111c-.444.003-.778-.13-1.002-.397-.224-.267-.335-.648-.332-1.142l.02-3.604-1.059.006.004-.768 1.059-.006.007-1.407.994-.006Zm1.857 4.249a3.48 3.48 0 0 1 .34-1.538 2.58 2.58 0 0 1 .941-1.058c.403-.249.86-.375 1.372-.378.791-.004 1.429.266 1.913.811.487.546.729 1.273.724 2.182v.07a3.476 3.476 0 0 1-.336 1.527c-.218.449-.53.8-.935 1.053a2.571 2.571 0 0 1-1.388.383c-.788.005-1.425-.266-1.913-.811-.484-.545-.724-1.269-.719-2.171v-.07Zm.998.113c-.003.644.142 1.161.438 1.55.298.388.698.581 1.2.578a1.445 1.445 0 0 0 1.206-.597c.299-.399.45-.955.455-1.668.003-.637-.146-1.152-.449-1.544a1.415 1.415 0 0 0-1.2-.589c-.49.002-.887.2-1.19.592-.303.391-.456.951-.46 1.678Zm177.912 1.864-1.037.005-3.904-6.004-.032 6.026-1.037.006.042-7.82 1.037-.006 3.915 6.031.032-6.053 1.026-.005-.042 7.82Zm2.755-.015-.993.005.031-5.811.994-.006-.032 5.812Zm-1.034-7.347a.605.605 0 0 1 .147-.409c.101-.112.248-.168.441-.169.194-.001.34.053.44.164.1.11.149.246.148.407a.578.578 0 0 1-.152.404c-.101.108-.248.162-.442.163-.193.001-.34-.052-.439-.158a.574.574 0 0 1-.143-.402Zm5.041 7.432c-.788.004-1.428-.25-1.919-.763-.491-.516-.735-1.208-.73-2.074l.001-.183c.003-.577.115-1.091.336-1.543.224-.456.534-.812.929-1.069.399-.26.83-.391 1.292-.394.755-.004 1.341.242 1.757.737.416.496.622 1.207.617 2.134l-.002.414-3.937.022c.011.573.175 1.035.492 1.388.32.349.728.522 1.222.52.351-.002.648-.076.892-.22.245-.145.459-.336.643-.573l.604.469c-.491.751-1.223 1.13-2.197 1.135Zm-.096-5.209a1.337 1.337 0 0 0-1.012.446c-.274.291-.444.7-.511 1.227l2.911-.016v-.075c-.026-.505-.16-.894-.402-1.169-.242-.278-.57-.416-.986-.413Zm3.292 2.13c.005-.892.22-1.609.645-2.152.426-.546.98-.822 1.664-.825.68-.004 1.218.226 1.613.689l.016-3.029.994-.006-.044 8.25-.914.005-.044-.623c-.401.49-.955.736-1.664.74-.673.004-1.221-.269-1.645-.818-.419-.549-.626-1.268-.622-2.156l.001-.075Zm.993.107c-.004.659.13 1.174.4 1.545s.645.555 1.125.552c.63-.003 1.091-.288 1.384-.856l.015-2.669c-.294-.546-.749-.818-1.365-.814-.487.002-.868.192-1.142.57-.274.377-.413.935-.417 1.672Zm6.38 1.996 3.4-.019-.004.811-4.614.025.004-.73 3.23-4.277-3.159.017.005-.822 4.404-.024-.004.704-3.262 4.315Zm1.603-7.448 1.204-.007-1.448 1.587-.801.005 1.045-1.585ZM29.95 173.981l-.017 3.061-1.03.006.041-7.82 2.885-.016c.855-.005 1.524.21 2.005.644.484.434.725 1.011.72 1.731-.003.759-.244 1.346-.723 1.76-.475.411-1.154.619-2.039.624l-1.842.01Zm.005-.843 1.853-.011c.55-.003.974-.134 1.27-.393.294-.263.443-.64.446-1.131.002-.465-.143-.837-.435-1.114-.292-.278-.694-.421-1.206-.429l-1.912.011-.017 3.067Zm5.408.915a3.48 3.48 0 0 1 .342-1.538c.228-.456.541-.808.94-1.058.402-.249.86-.375 1.371-.378.792-.004 1.43.266 1.913.812.488.545.73 1.272.725 2.181v.07a3.476 3.476 0 0 1-.337 1.527 2.49 2.49 0 0 1-.934 1.053 2.58 2.58 0 0 1-1.388.384c-.788.004-1.426-.267-1.913-.812-.484-.545-.724-1.269-.719-2.171v-.07Zm.999.113c-.004.644.142 1.161.437 1.55.299.388.699.581 1.2.579a1.446 1.446 0 0 0 1.206-.598c.3-.399.451-.955.455-1.667.004-.638-.146-1.153-.448-1.545a1.415 1.415 0 0 0-1.2-.589c-.49.002-.887.2-1.19.592-.303.392-.456.951-.46 1.678Zm6.493-3.006.029.73a2.143 2.143 0 0 1 1.744-.847c1.228-.007 1.844.683 1.847 2.068l-.02 3.841-.994.005.02-3.846c0-.418-.096-.728-.284-.927-.185-.2-.477-.298-.874-.296a1.45 1.45 0 0 0-.85.262c-.245.174-.435.4-.573.68l-.022 4.141-.994.006.031-5.812.94-.005ZM20.95 149.868c-.006 1.163-.21 2.029-.61 2.597-.4.568-1.023.854-1.868.859-.834.004-1.45-.268-1.849-.817-.398-.553-.6-1.379-.61-2.478l.008-1.327c.006-1.149.21-2.004.61-2.565.4-.561 1.025-.843 1.873-.848.842-.005 1.46.262 1.854.801.395.535.595 1.364.6 2.489l-.008 1.289Zm-.986-1.354c.005-.841-.11-1.453-.345-1.835-.234-.385-.607-.577-1.119-.574-.508.003-.88.197-1.115.581-.235.385-.358.974-.37 1.769l-.008 1.59c-.004.845.114 1.469.355 1.872.245.4.617.599 1.114.596.49-.003.855-.195 1.094-.575.242-.381.37-.98.385-1.796l.01-1.628ZM8.99 117.913l-5.123.028.004-.714 2.723-3.023c.403-.457.681-.827.833-1.111.155-.287.234-.583.236-.887.002-.408-.12-.742-.365-1.003-.246-.26-.575-.388-.987-.386-.494.003-.88.146-1.157.43-.273.281-.412.672-.414 1.174l-.994.005c.004-.72.238-1.303.702-1.749.468-.447 1.09-.672 1.868-.677.727-.004 1.3.185 1.72.566.421.377.63.882.626 1.516-.004.77-.5 1.689-1.486 2.758l-2.107 2.284 3.926-.022-.004.811Zm5.975-3.368c-.006 1.164-.21 2.03-.61 2.597-.4.568-1.023.855-1.868.859-.835.005-1.45-.267-1.849-.817-.398-.552-.601-1.378-.61-2.478l.008-1.326c.006-1.15.21-2.005.61-2.566.4-.56 1.025-.843 1.873-.848.842-.004 1.46.263 1.854.801.395.535.595 1.365.6 2.489l-.008 1.289Zm-.986-1.353c.004-.842-.11-1.454-.345-1.835-.234-.386-.607-.577-1.12-.574-.508.003-.88.196-1.114.581-.235.384-.358.974-.37 1.769l-.008 1.589c-.005.845.114 1.47.355 1.873.245.4.616.598 1.114.595.49-.002.855-.194 1.094-.575.241-.381.37-.98.385-1.796l.009-1.627Zm7.163 1.319c-.006 1.164-.21 2.03-.61 2.598-.4.567-1.024.854-1.869.858-.834.005-1.45-.267-1.848-.817-.398-.552-.601-1.378-.61-2.478l.007-1.326c.006-1.15.21-2.005.61-2.565.4-.561 1.025-.844 1.874-.849.841-.004 1.46.263 1.854.801.395.535.594 1.365.599 2.489l-.007 1.289Zm-.986-1.353c.004-.842-.11-1.453-.345-1.835-.234-.386-.607-.577-1.12-.574-.508.003-.88.196-1.114.581-.235.384-.358.974-.37 1.769l-.008 1.589c-.005.846.113 1.47.355 1.873.245.4.616.598 1.114.595.49-.002.855-.194 1.093-.575.242-.381.37-.979.386-1.796l.009-1.627ZM8.263 79.935l1.085-.006-.004.811-1.085.006-.01 1.816-.999.005.01-1.815-3.561.02.003-.586 3.531-5.439 1.058-.005-.028 5.193Zm-3.432.02 2.433-.014.02-3.835-.118.215-2.335 3.633Zm10.322-.766c-.007 1.163-.21 2.03-.61 2.597-.401.568-1.024.854-1.869.859-.834.004-1.45-.268-1.848-.817-.398-.553-.602-1.379-.61-2.478l.007-1.327c.006-1.15.21-2.004.61-2.565.4-.56 1.025-.843 1.874-.848.841-.005 1.46.262 1.854.8.394.536.594 1.365.599 2.49l-.007 1.288Zm-.987-1.354c.005-.841-.11-1.453-.344-1.835-.234-.385-.608-.577-1.12-.574-.508.003-.88.197-1.114.581-.235.384-.358.974-.37 1.77l-.008 1.589c-.005.845.113 1.47.355 1.872.245.4.616.599 1.114.596.49-.003.855-.195 1.093-.576.242-.38.37-.979.386-1.795l.008-1.628Zm7.163 1.32c-.006 1.163-.21 2.03-.61 2.597-.4.568-1.023.854-1.868.859-.834.004-1.45-.268-1.849-.817-.398-.553-.6-1.379-.61-2.478l.008-1.327c.006-1.15.21-2.004.61-2.565.4-.56 1.025-.843 1.873-.848.842-.005 1.46.262 1.854.8.395.536.595 1.365.6 2.49l-.008 1.289Zm-.986-1.354c.005-.841-.11-1.453-.345-1.835-.234-.385-.607-.576-1.119-.574-.508.003-.88.197-1.115.581-.235.385-.358.974-.37 1.77l-.008 1.589c-.004.845.114 1.47.355 1.873.245.4.617.598 1.114.595.49-.003.855-.195 1.094-.575.242-.381.37-.98.385-1.796l.009-1.628ZM8.187 39.381l-.004.843-.183.002c-.773.018-1.39.25-1.851.697-.461.447-.73 1.073-.805 1.879.414-.475.978-.714 1.69-.718.68-.004 1.222.233 1.624.71.405.478.606 1.097.602 1.856-.004.805-.228 1.45-.671 1.937-.44.485-1.028.73-1.766.734-.748.005-1.354-.279-1.816-.849-.462-.574-.691-1.314-.686-2.22l.002-.38c.008-1.44.32-2.541.936-3.304.62-.766 1.537-1.161 2.751-1.186h.177Zm-1.324 3.53a1.6 1.6 0 0 0-.941.312 1.62 1.62 0 0 0-.6.772l-.003.365c-.003.644.139 1.163.427 1.555.288.392.648.587 1.082.585.447-.003.799-.17 1.055-.5.26-.331.39-.763.394-1.297.003-.537-.126-.97-.385-1.297a1.224 1.224 0 0 0-1.029-.494Zm8.481.921c-.006 1.164-.21 2.03-.61 2.597-.4.568-1.023.855-1.868.86-.835.004-1.45-.268-1.849-.818-.398-.552-.601-1.378-.61-2.478l.008-1.326c.006-1.15.21-2.005.61-2.566.4-.56 1.025-.843 1.873-.848.842-.004 1.46.263 1.854.801.395.535.594 1.365.599 2.489l-.007 1.289Zm-.986-1.353c.004-.842-.11-1.453-.345-1.835-.234-.386-.607-.577-1.12-.574-.508.002-.88.196-1.114.58-.235.385-.358.975-.37 1.77l-.008 1.59c-.005.845.114 1.469.355 1.872.245.4.616.598 1.114.595.49-.002.855-.194 1.093-.575.242-.38.37-.98.386-1.796l.009-1.627Zm7.163 1.32c-.006 1.163-.21 2.029-.61 2.596-.4.569-1.024.855-1.869.86-.834.004-1.45-.268-1.848-.818-.398-.552-.601-1.378-.61-2.477l.007-1.327c.006-1.15.21-2.005.61-2.565.4-.561 1.025-.844 1.874-.849.841-.004 1.46.263 1.854.801.394.535.594 1.365.599 2.489l-.007 1.29Zm-.987-1.354c.005-.842-.11-1.453-.344-1.835-.234-.386-.608-.577-1.12-.574-.508.003-.88.196-1.114.58-.235.385-.358.975-.37 1.77l-.008 1.59c-.005.845.113 1.469.355 1.872.245.4.616.598 1.114.595.49-.002.855-.194 1.093-.575.242-.38.37-.98.386-1.796l.008-1.627ZM9.21 6.066a1.82 1.82 0 0 1-.316 1.044 2.114 2.114 0 0 1-.837.72c.408.172.729.427.963.762.238.335.356.716.354 1.142-.004.677-.236 1.217-.696 1.62-.457.404-1.058.608-1.803.612-.752.004-1.354-.193-1.807-.592-.449-.402-.671-.94-.668-1.613a2.02 2.02 0 0 1 .35-1.146c.235-.341.556-.6.966-.778a2.017 2.017 0 0 1-.818-.71 1.826 1.826 0 0 1-.295-1.035c.003-.659.217-1.183.642-1.572.424-.389.982-.585 1.673-.59.688-.003 1.242.187 1.662.572.424.384.634.906.63 1.564Zm-.83 3.652c.003-.437-.135-.792-.413-1.067-.274-.274-.635-.41-1.083-.407-.447.002-.808.14-1.081.414-.27.273-.407.632-.41 1.076-.001.444.127.793.387 1.046.264.252.63.377 1.1.375.465-.003.83-.132 1.097-.388.266-.259.4-.609.403-1.05Zm-1.466-4.97c-.39.001-.708.125-.953.37-.241.24-.363.57-.365.984-.002.398.114.72.35.965.238.242.556.362.953.36.398-.002.715-.125.953-.37.241-.249.363-.571.365-.969.002-.397-.12-.72-.365-.97-.246-.25-.559-.373-.938-.37Zm8.622 3.728c-.007 1.163-.21 2.029-.61 2.597-.401.568-1.024.854-1.869.859-.834.004-1.45-.268-1.848-.817-.399-.553-.602-1.379-.61-2.478l.007-1.327c.006-1.15.21-2.004.61-2.565.4-.56 1.025-.843 1.874-.848.841-.005 1.459.262 1.854.8.394.536.594 1.365.598 2.49l-.006 1.288Zm-.987-1.354c.005-.841-.11-1.453-.344-1.835-.235-.385-.608-.577-1.12-.574-.508.003-.88.197-1.115.581-.235.384-.358.974-.37 1.77l-.008 1.589c-.004.845.114 1.47.355 1.872.245.4.617.598 1.114.596.49-.003.855-.195 1.094-.575.242-.381.37-.98.385-1.796l.01-1.628Zm7.163 1.32c-.006 1.163-.21 2.03-.61 2.597-.4.568-1.023.854-1.868.859-.835.005-1.45-.268-1.849-.817-.398-.553-.601-1.379-.61-2.478l.008-1.327c.006-1.15.21-2.004.61-2.565.4-.56 1.025-.843 1.873-.848.842-.005 1.46.262 1.854.8.395.536.594 1.365.6 2.49l-.008 1.289Zm-.986-1.354c.004-.841-.11-1.453-.345-1.835-.234-.385-.607-.576-1.12-.574-.508.003-.88.197-1.114.581-.235.385-.358.974-.37 1.77l-.008 1.589c-.005.845.114 1.47.355 1.873.245.4.616.598 1.114.595.49-.003.855-.195 1.093-.575.242-.381.37-.98.386-1.796l.009-1.628Z" fill="#999"/><path d="m28.66 107.574 23.492-17.533c3.643-2.719 8.63-2.674 12.164.108l10.846 8.539c5.347 4.209 13.304 1.882 15.638-4.574l22.943-63.462c3.146-8.703 15.35-8.988 18.712-.438l12.986 33.032c2.946 7.494 13.141 8.486 17.629 1.715l3.402-5.132c4.177-6.301 13.506-5.98 17.101.587l6.047 11.05a9.856 9.856 0 0 0 6.451 4.874l16.294 3.732a9.871 9.871 0 0 1 4.567 2.437l22.595 21.296a9.894 9.894 0 0 0 6.557 2.685l26.57.622" stroke="#06F" stroke-width="2" stroke-linejoin="round"/><path d="m28.432 150.329 256.737-1.41M28.624 114.972l256.737-1.41M28.811 79.616l256.737-1.41M29.003 44.26l256.737-1.41M29.194 8.903l256.737-1.41" stroke="#E4E4E4" stroke-opacity=".2" stroke-linecap="square"/></svg>